<?xml version="1.0" encoding="utf-8"?>
<!-- Generator: Adobe Illustrator 24.2.3, SVG Export Plug-In . SVG Version: 6.00 Build 0)  -->
<svg version="1.1" id="Layer_1" xmlns="http://www.w3.org/2000/svg" xmlns:xlink="http://www.w3.org/1999/xlink" x="0px" y="0px"
	 viewBox="0 0 400 156" style="enable-background:new 0 0 400 156;" xml:space="preserve">
<style type="text/css">
	.st0{fill:#FFFFFF;}
	.st1{fill:#050403;}
	.st2{fill:#FDDCBA;}
</style>
<path class="st0" d="M135.1,131.7v8.5H134v-3.9h-4.7v3.9h-1.1v-8.5h1.1v3.7h4.7v-3.7H135.1z"/>
<path class="st0" d="M147.6,139.2v1h-5.8v-8.5h5.7v1h-4.6v2.8h4v0.9h-4v2.9L147.6,139.2z"/>
<path class="st0" d="M153.7,140.2v-8.5h1.1v7.6h4.8v1L153.7,140.2z"/>
<path class="st0" d="M171.1,139.2v1h-5.8v-8.5h5.6v1h-4.6v2.8h4v0.9h-4v2.9L171.1,139.2z"/>
<path class="st0" d="M178.4,133.7v6.5h-1.1v-8.5h0.8l5.3,6.6v-6.6h1.1v8.5h-0.9L178.4,133.7z"/>
<path class="st0" d="M193.8,131.7h0.9l3.5,8.5H197l-1-2.5h-3.6l-1,2.5h-1.1L193.8,131.7z M195.8,136.9l-1.5-3.9l-1.6,3.9H195.8z"/>
<path class="st0" d="M210.7,135.9c0-0.5,0.1-1,0.3-1.5c0.2-0.5,0.4-1,0.8-1.4c0.4-0.4,0.8-0.8,1.3-1c0.5-0.3,1.1-0.4,1.7-0.4
	c0.7,0,1.4,0.1,2,0.5c0.5,0.3,0.9,0.8,1.2,1.4l-0.9,0.6c-0.1-0.3-0.3-0.5-0.5-0.7c-0.2-0.2-0.4-0.3-0.6-0.4
	c-0.2-0.1-0.4-0.2-0.6-0.2c-0.2,0-0.4-0.1-0.7-0.1c-0.4,0-0.9,0.1-1.3,0.3c-0.4,0.2-0.7,0.5-0.9,0.8c-0.2,0.3-0.4,0.7-0.6,1.1
	c-0.1,0.4-0.2,0.8-0.2,1.2c0,0.9,0.3,1.7,0.8,2.4c0.3,0.3,0.6,0.6,0.9,0.8c0.4,0.2,0.8,0.3,1.2,0.3c0.2,0,0.5,0,0.7-0.1
	c0.2-0.1,0.5-0.2,0.7-0.3c0.2-0.1,0.4-0.3,0.6-0.5c0.2-0.2,0.3-0.4,0.5-0.7l0.9,0.5c-0.1,0.3-0.3,0.6-0.6,0.8
	c-0.2,0.2-0.5,0.5-0.8,0.6c-0.3,0.2-0.7,0.3-1,0.4c-0.3,0.1-0.7,0.1-1,0.1c-0.6,0-1.1-0.1-1.6-0.4c-0.5-0.2-0.9-0.6-1.3-1
	c-0.4-0.4-0.6-0.9-0.8-1.4C210.8,136.9,210.7,136.4,210.7,135.9z"/>
<path class="st0" d="M231,131.7v8.5h-1.1v-3.9h-4.7v3.9h-1.1v-8.5h1.1v3.7h4.7v-3.7H231z"/>
<path class="st0" d="M240.3,131.7h0.9l3.5,8.5h-1.1l-1-2.5h-3.6l-1,2.5h-1.1L240.3,131.7z M242.3,136.9l-1.5-3.9l-1.6,3.9H242.3z"/>
<path class="st0" d="M250.4,140.2v-8.5h3.6c0.3,0,0.7,0.1,1,0.2c0.3,0.1,0.6,0.4,0.8,0.6c0.2,0.3,0.4,0.6,0.5,0.9
	c0.1,0.3,0.2,0.7,0.2,1c0,0.3,0,0.6-0.1,0.9c-0.1,0.3-0.2,0.5-0.4,0.8c-0.2,0.2-0.3,0.4-0.6,0.6c-0.2,0.2-0.5,0.3-0.7,0.4l2.1,3.3
	h-1.2l-1.9-3.1h-2.3v3.1L250.4,140.2z M251.5,136.2h2.6c0.2,0,0.4,0,0.6-0.1c0.2-0.1,0.3-0.2,0.5-0.4c0.4-0.6,0.5-1.3,0.3-1.9
	c-0.1-0.2-0.2-0.4-0.3-0.6c-0.1-0.2-0.3-0.3-0.5-0.4c-0.2-0.1-0.4-0.1-0.6-0.1h-2.5L251.5,136.2z"/>
<path class="st0" d="M263,140.2v-8.5h1.1v8.5H263z"/>
<path class="st0" d="M275.8,133.4c-0.1-0.1-0.2-0.2-0.4-0.3c-0.2-0.1-0.4-0.2-0.5-0.3c-0.2-0.1-0.4-0.2-0.6-0.2
	c-0.2-0.1-0.5-0.1-0.7-0.1c-0.5,0-1,0.1-1.5,0.4c-0.3,0.2-0.5,0.6-0.5,1c0,0.2,0,0.4,0.1,0.6c0.1,0.2,0.2,0.3,0.4,0.4
	c0.2,0.1,0.5,0.2,0.7,0.3c0.3,0.1,0.6,0.2,1,0.3c0.4,0.1,0.8,0.2,1.2,0.3c0.3,0.1,0.6,0.3,0.9,0.5c0.2,0.2,0.4,0.4,0.6,0.7
	c0.1,0.3,0.2,0.7,0.2,1c0,0.4-0.1,0.7-0.2,1.1c-0.2,0.3-0.4,0.6-0.7,0.8c-0.3,0.2-0.6,0.4-1,0.4c-0.4,0.1-0.8,0.1-1.2,0.1
	c-0.6,0-1.3-0.1-1.9-0.3c-0.6-0.2-1.1-0.5-1.6-0.9l0.5-0.9c0.2,0.2,0.3,0.3,0.5,0.4c0.2,0.1,0.4,0.3,0.7,0.4
	c0.3,0.1,0.6,0.2,0.8,0.3c0.3,0.1,0.6,0.1,0.9,0.1c0.5,0,1-0.1,1.4-0.3c0.3-0.2,0.5-0.6,0.5-1c0-0.2,0-0.4-0.2-0.6
	c-0.1-0.2-0.3-0.3-0.5-0.4c-0.2-0.1-0.5-0.2-0.8-0.3c-0.3-0.1-0.7-0.2-1-0.3s-0.8-0.2-1.1-0.3c-0.3-0.1-0.6-0.2-0.8-0.4
	c-0.2-0.2-0.4-0.4-0.5-0.6c-0.1-0.3-0.2-0.6-0.2-0.9c0-0.4,0.1-0.7,0.2-1.1c0.2-0.3,0.4-0.6,0.6-0.8c0.3-0.2,0.6-0.4,1-0.5
	c0.4-0.1,0.8-0.2,1.2-0.2c0.5,0,1.1,0.1,1.6,0.3c0.4,0.2,0.9,0.4,1.2,0.7L275.8,133.4z"/>
<path class="st1" d="M253.9,103.8c-0.8,0.2-1.5,0.3-2.3,0.3c-1.5,0.3-3.1,0.1-4.5,0.6c-0.1,0-0.2,0-0.3,0c-1.8-0.2-3.6,0.4-5.4,0.3
	c-0.9-0.1-1.8,0.4-2.8,0.3c-0.9,0-1.8,0.1-2.6,0.2c-1.4,0.1-2.8,0.4-4.3,0.4c-1.3,0-2.7,0.2-3.9,0.5c-0.1,0-0.3,0-0.4,0
	c-1.7-0.1-3.5,0.1-5.2,0.4c-1.5,0.1-3,0.1-4.5,0.3c-2.1,0.3-4.2,0.4-6.4,0.6c-2.4,0.2-4.8,0.5-7.3,0.6c-2.2,0.1-4.3,0.4-6.5,0.6
	c-2.4,0.3-4.8,0.5-7.3,0.6c-0.7,0-1.2,0.4-1.9,0.3c-0.6-0.2-1.3-0.1-1.9,0.2c-0.1,0-0.2,0-0.3,0c-1.9-0.2-3.7,0.3-5.5,0.3
	c-1.7,0.1-3.4,0.2-5.1,0.3c-1,0-2,0.1-2.9,0.3c-1.6,0.3-3.2,0.1-4.8,0.3c-1.3,0.2-2.5,0.1-3.7,0.3c-2.2,0.3-4.3,0.4-6.5,0.6
	c-1.3,0.1-2.7,0.1-4,0.3s-2.6,0-3.9,0.3c-1.7,0.4-3.5-0.1-5.1,0.5c0,0-0.1,0-0.1,0c-2.1-0.1-4.2,0.5-6.3,0.3
	c-0.9-0.1-1.7,0.4-2.6,0.3c-0.9-0.2-1.8-0.1-2.6,0.3c-0.1,0-0.2,0-0.3,0c-2.3-0.2-4.5,0.5-6.7,0.3c-1-0.1-1.9,0.4-3,0.3
	c-0.9-0.2-1.9-0.1-2.8,0.3c0,0-0.1,0-0.2,0c-1.9-0.2-3.7,0.4-5.5,0.3c-1.6,0-3.3,0.2-4.8,0.6c-0.4,0.1-0.8,0.1-1.2,0
	c-2.5-0.2-4.9,0.5-7.3,0.3c-1.5,0.5-3.1,0.1-4.6,0.3s-3,0.1-4.5,0.3s-3.1,0-4.6,0.3s-3,0-4.5,0.3c-1.8,0.2-3.7,0.3-5.5,0.2
	c-0.9,0.2-1.9,0.3-2.8,0.3c-0.9-0.2-1.8-0.1-2.7,0.3c-0.1,0.1-0.3,0-0.4,0c-3.2-0.2-6.4,0.5-9.6,0.3c-1.4,0-2.8-0.2-4.1-0.6
	c-1.2-0.3-2.5-0.5-3.8-0.7c-1.8-0.4-3.7-0.6-5.5-0.8c-1.4-0.3-2.8-0.4-4.2-0.4c-1.1,0.1-2-0.4-3.1-0.3c-1.1,0.1-2.1,0.1-3.2,0
	c-2.9-0.5-5.8-0.2-8.7-0.3c-1.9-0.1-3.8,0-5.8,0c-1,0-1.9,0.5-3,0.3s-1.1-0.2-1-1.4c0.2-1.1,0.2-2.2,0-3.3c-0.4-1.6-0.4-3.2-1.1-4.7
	c0.1-1.5-0.2-3.1,0.3-4.6c0.4-1.1,1.1-2.1,2.2-2.7c1.4-0.8,2.9-1.3,4.5-1.5c3.5-0.8,7.1-0.6,10.7-0.6c0.2-1,0.2-2.1-0.1-3.1
	c-0.1-0.4-0.1-0.9-0.1-1.3c-0.1-0.8-0.1-0.8-1-1c-2.5-0.6-5-1.1-7.5-1.8c-1.5-0.5-2.9-1.1-4.3-1.7c-2.6-1-5.2-2.4-7.5-4
	c-0.6-0.4-1.2-0.8-1.8-1.3c-0.7-0.5-1.1-1.3-1-2.2c0.1-4.4,0.1-8.8,0-13.2c-0.1-0.9,0.4-1.8,1.3-2.2c2.3-1.3,4.7-2.4,7.2-3.2
	c1.9-0.7,4-1.2,6-1.4c0.7-0.1,1.4-0.3,2.1-0.6c1.2-0.5,2.5-0.2,3.8-0.6c1.8-0.4,3.6-0.7,5.5-0.9c1.2-0.2,2.3-0.4,3.5-0.4
	c1.1,0,2.2-0.2,3.2-0.5c0.1-0.1,0.3-0.1,0.4-0.1c1.5,0.1,3-0.1,4.5-0.4c1.7-0.2,3.3,0,4.9-0.3c1.5-0.2,2.9,0,4.3-0.3
	c1.6-0.3,3.2,0,4.8-0.3c1.9-0.3,3.9,0,5.8-0.3s3.9,0,5.8-0.3c2.4-0.3,4.8,0,7.2-0.3c2.2-0.3,4.4,0,6.6-0.3c2-0.2,4.1-0.3,6.1-0.3
	c-1.3,3.2-2.5,6.4-3.8,9.6c-0.6,1.6-1.2,3.2-1.9,4.7c-0.3,0.8-0.7,1.5-1.8,1.6c-0.8,0.1-1.6,0.3-2.3,0.6c-0.8,0.1-1.4,0.7-1.6,1.4
	c-0.2,0.8,0.4,1.2,0.8,1.7c0.7,0.5,1.4,0.9,2.2,1.3c0,0.5-0.1,0.9-0.2,1.3c-0.6,1.8-1.2,3.7-1.8,5.6c-1.7,5.2-3.4,10.4-4.8,15.7
	c-0.3,0.9-0.5,1.9-0.4,2.8c0.5,2.3,2.1,4.1,4.2,4.9c0.8,0.3,1.8,0.1,2.3-0.6c0.6-0.8,1-1.7,1.1-2.7c0.3-2,0.8-3.9,1.4-5.8
	c1.9-6.3,4.1-12.6,5.7-19c0.3-1.8,1.7-3.1,3.5-3.3c2.3-0.3,4.7-0.6,7-0.9c1.9-0.1,3.9-0.5,5.7-1c0.3-0.1,0.6-0.3,1,0
	c-0.2,0.8-0.5,1.7-0.9,2.5c-2.3,6.2-4.7,12.3-7.1,18.4c-1.8,4.4-3.3,9-4.5,13.6c-0.6,1.9,0.2,4,1.9,5.1c2.2,1.4,3.8,1.3,5.1-1.4
	c0.3-0.6,0.5-1.2,0.7-1.8l2.7-7.3c1.7-4.7,3.8-9.3,5.3-14.2c1-3.3,2.6-6.5,3.8-9.7c0.7-1.7,1.4-3.3,2.2-4.9c0.5-1.2,1.5-2.1,2.8-2.6
	c1.1-0.4,2.2-0.6,3.4-0.6c1.2,0,2.3-0.2,3.4-0.6c0.3-0.1,0.7-0.3,0.9-0.5c0.2-0.2,0.5-0.5,0.2-0.9c-0.2-0.3-0.6-0.5-0.9-0.4
	c-1.4,0.7-2.9,0.3-4.3,0.3c-1,0-2-0.1-2.9-0.3c2.3-5.4,5-10.4,7.6-15.5c0.9,0.1,1.8,0,2.6-0.3c0.8-0.3,1.8,0.2,2.6-0.3
	c0,0,0.1,0,0.1,0c1.6,0.2,3.1-0.5,4.7-0.3c-1.3,1.9-2.4,3.9-3.5,6c-1.3,2.3-2.4,4.6-3.4,7c-1.8,4.8-3.5,9.6-5.1,14.5
	c-0.9,2.4-1.5,5-1.6,7.6c0,1-0.1,2-0.3,3c-0.4,2-0.6,4.1-0.6,6.1c0,2.6,0.7,5.1,2.2,7.2c2.8,4.4,6.8,7.2,11.4,9.2
	c2.4,1.1,5.2,1,7.5-0.4c2.5-1.5,4.7-3.2,6.8-5.2c1.9-1.8,3.7-3.7,5.3-5.8c2.4-3,4.2-6.3,5.5-9.9c0.9-2.3,1.3-4.8,1.4-7.3
	c0-0.5,0-0.9-0.1-1.3c-0.1-0.5-0.5-0.6-0.9-0.3c-0.5,0.3-0.8,0.8-1.1,1.3c-0.6,1-1.2,2.1-1.9,3.1c-3.4,5.2-7.5,10-12.1,14.2
	c-2.5,2.4-5.6,4.1-8.9,5.1c-1.1,0.3-2.3,0.4-3.4,0.2c-0.8-0.1-1.6-0.5-2.1-1.1c-1-1.2-1.6-2.6-1.7-4.1c-0.1-2-0.1-3.9,0.1-5.9
	c0.4-3.4,1.2-6.8,2.3-10c2.4-7.5,5.2-14.9,8.4-22.1c2-4.4,4.3-8.6,7-12.6c1.8,0.2,3.6-0.4,5.5-0.4c0.9,0,1.8-0.1,2.6-0.3
	c1.3-0.4,2.7-0.2,4-0.3c0.2,0,0.2,0.2,0.3,0.3c-0.4,1-0.9,1.9-1.4,2.8c-0.4,1.1-1,2.1-1.8,2.9c-0.2,0.2-0.3,0.6-0.1,0.8c0,0,0,0,0,0
	c0.2,0.3,0.5,0.5,0.8,0.3c0.7-0.3,1.5-0.2,2.2-0.4c4.3-1.6,7.8-4,9.6-8.4c0,0.3,0.3,0.4,0.5,0.4c0,0,0,0,0,0
	c0.7-0.1,1.5,0.2,2.2-0.3c0.1,0,0.2,0,0.3,0c1.7,0.2,3.3-0.5,5-0.3c0,0.2-0.1,0.5-0.2,0.7c-1.1,2.3-2,4.6-2.9,6.9
	c-2.1,5.9-3.8,12-5.1,18.1c-0.7,3.3-1.3,6.6-1.9,9.8c-0.7,3.5-1,7-0.8,10.5c0,1,0.4,1.9,1,2.6c0.9,1.1,2.5,1.4,3.6,0.5
	c0.4-0.3,0.6-0.6,0.8-1c1-2,2.2-4,3.5-5.8c2-2.5,3.8-5.2,5.4-8c0.2-0.4,0.5-0.8,0.9-1c0.7-0.4,1.4-0.9,1.9-1.6
	c1.1-1.3,2.2-2.6,3.2-4c2.1-2.9,4.4-5.5,6.9-8c0.2-0.2,0.3-0.5,0.8-0.3c-1.6,2.6-1.9,5.8-3.8,8.2c-0.5,0.7-0.9,1.4-1.3,2.2
	c-1.2,2.3-2.3,4.7-3.1,7.1c-0.6,1.9-1.1,3.8-1.6,5.8c-0.6,2.3-1,4.7-0.1,7.1c0.2,0.8,0.6,1.6,1.1,2.2c0.9,1,1.9,2,2.9,2.8
	c2.4,1.8,5.1,2,7.4-0.4c2-2.2,3.8-4.5,5.4-7c1-1.6,2-3.1,3-4.7c0.2,1.3,0.1,2.5,0.2,3.7c0.2,2,1.1,3.9,2.6,5.3
	c0.4,0.4,1,0.7,1.6,0.6c0.8-0.1,1.6-0.1,2.4-0.1c0.9,0.1,1.7-0.2,2.3-0.8c1.2-1.1,2.4-2.2,3.4-3.4c2.1-2.3,4-4.8,5.5-7.5
	c1.1-1.8,2.2-3.6,3.5-5.2c0.1,0.4,0.1,0.9,0,1.3c-0.9,2.6-1.5,5.2-1.8,7.9c-0.2,1.5-0.2,3,0,4.5c0.3,1.6,0.8,3.1,1.4,4.6
	c-0.9-0.1-1.8-0.1-2.7,0.1c-0.7,0.2-1.5,0.3-2.2,0.2c-0.8-0.1-1.5,0.3-2.3,0.3c-2,0-3.9,0.5-5.8,0.3c-0.1,0-0.3,0-0.4,0
	c-1.3,0.4-2.6,0.6-3.9,0.6c-0.5-0.1-0.9-0.1-1.4,0c-1.6,0.4-3.3,0.6-5,0.6c-0.2,0-0.4,0-0.6,0c-1.3,0.4-2.7,0.6-4.1,0.6
	c-0.3,0-0.5,0-0.8,0c-1.4,0.4-2.9,0.6-4.4,0.6c-0.3,0-0.6,0-0.9,0.1c-1.6,0.5-3.3,0.5-4.9,0.8c-1.1,0.2-2.2,0.2-3.2,0.4
	c-1.5,0.3-3,0.5-4.5,0.6c-0.1,0-0.3,0.1-0.4,0.1c-0.9,0.2-1.8,0.4-2.7,0.5c-0.9,0.1-1.9,0.2-2.8,0.4c-1.6,0.3-3.2,0.4-4.8,0.8
	c-1.9,0.4-3.8,0.6-5.6,1c-1.1,0.3-2.2,0.1-3.4,0.9c1.7,0,3.4-0.1,5.1-0.3c2.1-0.4,4.2-0.4,6.3-0.6c2-0.2,3.9-0.4,5.9-0.6
	c1.4-0.2,2.9,0,4.3-0.3c1-0.2,2-0.2,2.9-0.3c1.8-0.3,3.6-0.4,5.4-0.4c0.4,0.1,0.8,0.1,1.2,0c0.5-0.3,1.1-0.4,1.6-0.2
	c0.6,0.1,1.1-0.3,1.7-0.3c1.6,0,3.3-0.1,4.9-0.2c1.7-0.3,3.5-0.5,5.2-0.4c0.1,0,0.3,0,0.4,0c1.6-0.4,3.3-0.6,5-0.6
	c1,0.1,1.9,0.1,2.9-0.1c0.8-0.2,1.7-0.3,2.5-0.2c0.9,0.1,1.6-0.3,2.5-0.3c1.3,0.2,2.7,0.1,4-0.3c1.9,0.2,3.8-0.4,5.7-0.3
	c0.7,0,1.4,0,2.1,0c0.2,0,0.4,0,0.5-0.3c0.5,0,0.9,0.2,1.4,0.3c1.2,0,2.4-0.3,3.5-0.9c0.1,0.3,0.4,0.3,0.6,0.3
	c1.6-0.1,3.2-0.1,4.8-0.2c2-0.2,4-0.4,6-0.4c1.2,0,2.3,0,3.5,0C253.8,103.1,253.9,103.5,253.9,103.8z M162.9,109.7
	c0.1,0.1,0.1,0.1,0.2,0.1c0.1,0,0.3,0,0.2-0.2s-0.1-0.1-0.2-0.1S163,109.7,162.9,109.7z"/>
<path class="st1" d="M292.1,100.8c0-0.2-0.3-0.4-0.4-0.3c-0.6,0.7-1.3,0.6-2.1,0.6c-2,0-4.1,0.5-6.1,0.3c-1.3,0.5-2.6,0.3-3.9,0.3
	c-1.6,0-3.2,0.2-4.8,0.6c0,0-0.1,0-0.1,0c-2.1-0.2-4.2,0.5-6.3,0.3c3.9-3.9,7-8.6,10.2-13.1c0.9,1.1,1.7,2.1,2.4,3.2
	c1.2,1.7,3.1,2.9,5.2,3.2c1,0.3,2.1,0,3-0.6c1.1-0.7,2-1.7,2.8-2.7c2.6-3.6,5.3-7.2,7.9-10.9c0.3-0.4,0.6-0.8,0.8-1.3
	c0.2-0.5,0.4-1,0.6-1.5c0.3-0.6,0.1-1.2-0.4-1.6c-0.5-0.4-1.2-0.1-1.7,0.2c-0.3,0.2-0.6,0.4-0.8,0.7c-1.3,1.5-2.4,3.1-3.5,4.7
	c-0.2,0.3-0.5,0.7-0.5,1.1c0.1,0.6-0.3,0.9-0.7,1.3c-1.7,1.6-3.6,3-5.3,4.4c-0.6,0.5-1.2,0.9-1.9,1.1c-1.4,0.6-2.3,0-2.4-1.5
	c0-1.2,0.3-2.5,0.7-3.7c0.7-2.4,2.2-4.4,2.6-6.9c0.2-1,0.8-1.9,1.6-2.5c0.5-0.4,0.8-1,1-1.6c0.3-1.1,0.3-1.3-0.6-1.9
	c-1.1-0.8-2.4-1.3-3.7-1.5c-1-0.2-1.9,0-2.8,0.5c-1.1,0.7-1.9,1.8-2.2,3.1c-0.6,1.7-1.2,3.5-1.5,5.3c-0.3,1.8-1,3.6-2.1,5.1
	c-3.1,3.9-6.1,8-9.2,11.9c-0.3,0.7-0.7,1.3-1.1,1.9c-1.2,1.2-2.6,2.3-4,3.3c-0.4,0.3-0.9,0.5-1.3,0.7c-0.5,0.2-0.8,0-0.8-0.6
	c0-0.6,0.1-1.1,0.2-1.6c0.4-1.2,0.9-2.3,1.4-3.5c1.2-3.4,2.5-6.7,4-10c0.9-1.8,1.7-3.5,2.4-5.3c0.9-2.3,0-3.3-1.8-4
	c-1.2-0.5-2.5-0.7-3.8-0.6c-1,0.1-1.9,0-2.9-0.1c-1.7-0.3-2.8-1.3-1.8-3.2c0.4-0.7,0.8-1.3,1.1-1.9c0.1-0.2,0.2-0.3,0.4-0.4
	c0.8-0.6,1.2-1.7,1.1-2.7c-0.1-0.4-0.5-0.8-0.9-0.9c-0.3-0.1-0.6-0.1-0.8-0.3c-1.4-0.6-3.1-0.4-4.3,0.5c-1.6,1-2.7,2.6-3.2,4.4
	c-0.5,1.5-0.3,3.1,0.5,4.5c0.3,0.5,0.3,1.2-0.1,1.7c-2.9,4.4-5.6,8.9-8.8,13.2c-1.2,1.8-2.6,3.5-4.2,5c-0.4,0.4-0.9,0.7-1.4,0.9
	c-0.4,0.2-0.8,0.1-1-0.3c0-0.1-0.1-0.1-0.1-0.2c-0.2-0.6-0.4-1.3-0.3-1.9c0.3-1.5,0.4-3.1,0.7-4.6c0.3-1.8,1-3.5,0.8-5.3
	c0-0.3,0.1-0.7,0.2-1c0.7-2.1,1.5-4.2,2.5-6.2c0.5-0.9,0.9-1.8,1.3-2.7c0.4-0.9,0.5-1.9,0.1-2.8c-0.8-2.2-3.3-3.3-5.4-2.5
	c-0.3,0.1-0.5,0.2-0.7,0.4c-1.4,0.8-2.5,1.9-3.5,3.2c-0.3-0.2-0.4-0.5-0.5-0.8c-0.5-2.2-1.6-4.1-3.1-5.8c-1.7-1.8-4.6-2.1-6.6-0.6
	c-1,0.8-2.1,1.5-3.3,2.2c-0.6,0.3-1.1,0.7-1.5,1.2c-1.9,2.3-3.5,4.9-4.8,7.7c-0.9,2-1.5,4.2-3.1,5.9c-3,3.3-5.9,6.8-9.2,9.9
	c-0.5,0.4-1,0.9-1.5,1.2c-0.4,0.4-0.9,0.5-1.4,0.3c-0.6-0.3-0.5-0.9-0.5-1.5c0-0.1,0-0.1,0-0.2c0.2-1.2,0.4-2.5,0.8-3.7
	c0.4-1,0.6-2,0.9-3c0.1-0.3,0.2-0.7,0-0.9c-0.7-0.5-0.2-1-0.1-1.5c1.2-3.4,2.7-6.7,4.2-9.9c0.9-2,2-3.8,2.7-5.8
	c0.6-1.4,0.8-2.9,0.5-4.4c-0.7-2.2-3.2-4.5-6.2-2.9c-0.4,0.3-0.9,0.5-1.3,0.8c-1.9,1.5-3.7,3.2-5.2,5.1c-2.2,2.7-4.5,5.3-6.6,8
	c-1.6,1.9-3.1,3.8-4.5,5.9c-0.8,1.3-1.7,2.6-2.7,3.8l-0.2-0.2c0-0.3,0.1-0.6,0.1-0.9c1.4-4.8,2.9-9.5,4.5-14.3c0.4-1,1-2,1.8-2.8
	c0.9-0.8,1.7-1.6,2.5-2.4c2.6-2.6,5.4-5.1,7.3-8.2c0.5-0.8,1.1-1.4,1.9-2c1.1-0.9,2.1-2,3-3.1c1.4-1.7,2.5-3.6,3.8-5.4h14.6
	c3.6,0,7.1,0.6,10.7,0.3c5.8-0.5,11.6,0,17.4-0.3c2.4-0.1,4.7,0,7-0.3c2.3-0.3,4.4,0,6.6-0.3c1.7-0.2,3.4,0,5.1-0.3c2-0.3,4,0,6-0.3
	c1.7-0.2,3.4,0,5.1-0.3c1.6-0.2,3.2-0.3,4.8-0.2c3.4-0.1,6.8-0.2,10.2-0.4c3-0.2,6-0.2,9-0.2c2.8,0,5.6-0.5,8.4-0.3s5.6-0.1,8.3,0.1
	c2.7,0.2,5.4,0.3,8.1,0.2c1.6,0,3.1-0.2,4.7-0.5c0.4-0.1,0.8-0.1,1.2,0c1.2,0,2.4-0.1,3.5-0.5c0.2-0.1,0.5-0.1,0.7-0.1
	c1.7-0.1,3.4-0.4,5.1-0.8c0.2-0.1,0.5-0.1,0.7-0.1c1.5-0.1,3-0.3,4.5-0.8c0.9-0.1,1.8-0.2,2.8-0.4c1.7-0.5,3.6-0.5,5.4-0.9
	c0.9-0.1,1.9-0.2,2.8-0.3c1.2-0.4,2.4-0.1,3.5-0.3c1.1-0.2,2.2-0.2,3.3-0.3c2.2-0.1,4.4,0.3,6.5,1.1c1.5,0.5,2.7,1.4,3.5,2.7
	c0.3,0.5,0.5,1.2,0.6,1.8c0,0.8,0,1.6,0,2.5l-3.1,0.4c-2.3,0.3-4.5,0.4-6.8,0.7c-1.6,0.2-3.1,0.4-4.7,0.6c-1.9,0.3-3.9,0.5-5.8,0.8
	c-1.2,0.3-2.3,0.4-3.5,0.4c-0.8-0.1-1.5,0.4-2.3,0.3c-0.7-0.2-1.5-0.1-2.2,0.3c0,0-0.1,0-0.1,0c-1.5-0.2-3,0.4-4.5,0.3
	c-1.3,0-2.6,0.2-3.8,0.5c-0.3,0.1-0.7,0.1-1,0.1c-1.6,0-3.3,0.2-4.8,0.6c-0.2,0-0.4,0-0.6,0c-1.5,0-3.1,0.1-4.6,0.4
	c-1.1,0.1-2.3,0.1-3.4,0.3c-2.6,0.4-5.2,0.6-7.9,0.6c-1.1,0.5-2.4,0.2-3.6,0.4c0.3,0.4,0.7,0.2,1,0.2c3.5,0.2,6.9-0.5,10.4-0.3
	c1.6-0.5,3.2-0.1,4.8-0.3s3.3,0,4.9-0.3c1.9-0.3,3.8,0.1,5.7-0.3s3.5,0.2,5.1-0.5h0.1c2,0.1,3.9-0.5,5.8-0.3
	c0.9,0.1,1.7-0.4,2.6-0.3c0.9,0.1,1.7,0.1,2.6,0c1.1-0.3,2.2,0,3.3-0.3c1.5-0.5,3.2,0.1,4.7-0.5c0,0,0.1,0,0.1,0
	c1.9,0.1,3.8-0.3,5.7-0.4c1.5,0,3-0.2,4.5-0.2c0.2,0,0.5-0.1,0.8,0.1c-0.5,2-0.1,4-0.2,6.1c0,0.4,0.4,0.7,0.4,1.1s0.3,0.6,0.8,0.6
	c0.6,0.1,1.1,0.1,1.7,0c1.3-0.4,2.7-0.4,4-0.8s2.5-0.4,3.7-0.7c0.6-0.1,1.3,0,1.9,0.4c1.6,0.5,3.1,1.2,4.5,2
	c0.4,0.2,0.7,0.7,0.7,1.2c0,2,0,4,0,6.1c0,3.8,0,7.6,0,11.4c0,0.7-0.2,1.3-0.7,1.7c-1.5,1.4-2.9,2.8-4.3,4.3c-0.6,0.6-1.4,1-2.3,0.9
	c-1.7,0-3.4,0-5.1,0c-3.5-0.2-7,0.5-10.5,0.3c-1.6,0.5-3.3,0.1-4.9,0.3s-3.2,0-4.8,0.3s-3.3,0.1-4.9,0.3c-2.6,0.3-5.2,0.5-7.9,0.6
	c-1.3,0.6-2.8,0-4.1,0.6c-0.1,0-0.2,0-0.3,0c-2-0.2-3.9,0.5-5.8,0.3c-1.5,0.7-3.3-0.1-4.8,0.6c-0.1,0-0.2,0-0.3,0
	c-2-0.2-3.9,0.4-5.8,0.4c-1,0.1-2,0.2-2.9,0.2c0.1-0.3,0.4-0.4,0.7-0.6c2.2-1.4,4.2-2.9,6.2-4.5c1-0.7,1.7-1.9,1.7-3.2
	c-0.1-1.3-0.8-1.8-2-1.3c-0.7,0.3-1.3,0.7-1.9,1.2c-1.4,1.2-2.9,2.3-4.5,3.3c-3.1,1.8-6.3,3.5-9.5,5.1c-0.4-0.3-0.7-0.7-0.7-1.2
	c-0.2-1.2-0.5-2.3-0.8-3.5s-0.1-2.4-0.4-3.6c-0.2-1.3-0.4-2.5-0.8-3.8c-0.4-1.4-0.6-2.9-0.4-4.3c0.1-0.7,0.4-1.5,0.7-2.1
	c0,0,0.4,0.2,0.5-0.3c0.1-0.3,0.2-0.7,0.3-1c0-0.3,0-0.6,0.1-0.9c0.5-1.2-0.2-2.1-1-2.8c-0.8-0.7-1.9-0.9-2.8-0.4
	c-4,1.9-6.2,5.2-5.7,9.8c0.3,2.3,1.5,4.4,1,6.9c0,1,0.2,2.1,0.6,3.1c0.5,1.8,1,3.7,1.5,5.5c-0.6,0-1.3,0.1-1.8,0.5
	c-0.3,0.2-0.7,0.3-1,0.2c-0.9,0-1.8,0.2-2.7,0.6h5.7c0.3,1.3-0.7,1.8-1.5,2.4c-0.6,0.4-1.3,0.7-1.8,1
	C297.8,95.6,294.8,98.1,292.1,100.8z M291.9,62.5c-0.2-0.5,0-1,0.5-1.3c0.7-0.5,1.1-1.2,1.3-2c0.1-0.5,0.5-1,1-1.2
	c0.8-0.4,1.4-1,1.8-1.8c0.3-0.5,0.6-1.1,0.5-1.7c-1-3-3.3-4.7-6.7-3.5c-0.3,0.1-0.7,0.3-0.6,0.5c0.3,0.5-0.2,0.6-0.3,0.8
	c-0.6,0.8-0.6,0.8,0,1.7c0.2,0.2,0.2,0.4,0.3,0.7c0,0.7-0.1,1.3-0.3,1.9c-0.4,0.9-0.7,1.8-1,2.8c-0.3,1.4-1.1,2.7-2.1,3.6
	c-0.5,0.4-0.9,0.7-0.8,1.3c0.1,0.6-0.1,1.1,0.2,1.6c0.2,0.3,0.3,0.7,0.5,1.1c0.4,0.7,0.8,0.9,1.4,0.6c1.3-0.4,2.4-1.4,3-2.6
	c0.1-0.3,0.2-0.4,0.5-0.4c0.9,0.2,1.2-0.5,1.5-0.9c0.5-0.5,0.8-1.1,0.9-1.8C292.8,62.3,292.3,62.2,291.9,62.5L291.9,62.5z"/>
<path class="st2" d="M179.7,85.1c1-1.2,1.9-2.4,2.7-3.8c1.4-2,2.9-4,4.5-5.9c2.2-2.7,4.4-5.4,6.6-8c1.5-1.9,3.3-3.6,5.2-5.1
	c0.4-0.3,0.9-0.5,1.3-0.8c3-1.7,5.6,0.7,6.2,2.9c0.3,1.5,0.2,3-0.5,4.4c-0.7,2-1.8,3.9-2.7,5.8c-1.6,3.2-3,6.5-4.2,9.9
	c-0.2,0.5-0.6,1,0.1,1.5c0.2,0.1,0.1,0.6,0,0.9c-0.3,1-0.5,2-0.9,3c-0.3,1.2-0.6,2.4-0.8,3.7c0,0.1,0,0.1,0,0.2c0,0.6,0,1.2,0.5,1.5
	c0.5,0.2,1,0,1.4-0.3c0.5-0.4,1.1-0.8,1.5-1.2c3.3-3.1,6.1-6.6,9.2-9.9c1.6-1.8,2.1-3.9,3.1-5.9c1.2-2.7,2.8-5.3,4.7-7.7
	c0.4-0.5,0.9-0.9,1.5-1.2c1.1-0.6,2.2-1.4,3.3-2.2c2-1.5,4.8-1.2,6.6,0.6c1.5,1.6,2.6,3.6,3,5.7c0,0.3,0.2,0.6,0.5,0.8
	c0.9-1.3,2.1-2.4,3.5-3.2c2-1.3,4.6-0.7,5.8,1.2c0.2,0.3,0.3,0.6,0.4,0.9c0.4,0.9,0.3,1.9-0.1,2.8c-0.4,0.9-0.8,1.8-1.3,2.7
	c-1,2-1.8,4.1-2.5,6.2c-0.1,0.3-0.2,0.7-0.2,1c0.2,1.8-0.4,3.6-0.8,5.3c-0.3,1.5-0.4,3.1-0.7,4.6c-0.1,0.7,0.1,1.3,0.3,1.9
	c0.1,0.4,0.6,0.6,1,0.5c0,0,0.1,0,0.1,0c0.5-0.3,1-0.6,1.4-1c1.5-1.5,2.9-3.2,4.2-5c3.1-4.2,5.9-8.7,8.8-13.2
	c0.4-0.5,0.4-1.2,0.1-1.7c-0.8-1.4-1-3-0.5-4.5c0.5-1.8,1.6-3.4,3.2-4.4c1.2-1,2.9-1.2,4.3-0.5c0.3,0.1,0.6,0.2,0.8,0.3
	c0.4,0.1,0.8,0.5,0.9,0.9c0.1,1-0.3,2-1.1,2.7c-0.2,0.1-0.3,0.2-0.4,0.4c-0.4,0.7-0.8,1.3-1.1,1.9c-1.1,1.9,0.1,2.9,1.8,3.2
	c1,0.1,1.9,0.2,2.9,0.1c1.3,0,2.6,0.2,3.8,0.6c1.9,0.7,2.7,1.7,1.8,4c-0.7,1.8-1.5,3.6-2.4,5.3c-1.5,3.3-2.8,6.6-4,10
	c-0.4,1.2-1,2.3-1.4,3.5c-0.2,0.5-0.2,1.1-0.2,1.6c0,0.5,0.3,0.8,0.8,0.6c0.5-0.2,0.9-0.4,1.3-0.7c1.4-1,2.8-2,4-3.3
	c0.4-0.6,0.8-1.2,1.2-1.9c3.1-3.9,6.1-8,9.2-11.9c1.1-1.5,1.8-3.2,2.1-5.1c0.4-1.8,0.9-3.6,1.5-5.3c0.3-1.3,1.1-2.4,2.2-3.1
	c0.8-0.5,1.8-0.7,2.8-0.5c1.3,0.2,2.6,0.8,3.7,1.5c1,0.7,1,0.8,0.6,1.9c-0.2,0.6-0.5,1.2-1,1.6c-0.8,0.6-1.4,1.5-1.6,2.5
	c-0.5,2.5-2,4.6-2.6,6.9c-0.4,1.2-0.7,2.4-0.7,3.7c0.1,1.6,1,2.2,2.4,1.5c0.7-0.3,1.3-0.7,1.9-1.1c1.8-1.5,3.7-2.8,5.3-4.4
	c0.4-0.3,0.8-0.6,0.7-1.3c0-0.3,0.3-0.7,0.5-1.1c1.1-1.6,2.2-3.2,3.5-4.7c0.2-0.3,0.5-0.5,0.8-0.7c0.5-0.3,1.1-0.6,1.7-0.2
	c0.5,0.4,0.6,1.1,0.4,1.6c-0.2,0.5-0.4,1-0.6,1.5c-0.2,0.4-0.5,0.9-0.8,1.3c-2.6,3.6-5.2,7.3-7.9,10.9c-0.8,1.1-1.7,2-2.8,2.7
	c-0.9,0.6-2,0.9-3,0.6c-2.1-0.3-4-1.5-5.2-3.2c-0.7-1.1-1.6-2.1-2.4-3.2c-3.3,4.5-6.3,9.2-10.2,13.1c-1.5,1.3-3,2.4-4.6,3.6
	c-1.1,0.8-2.3,1.3-3.4,2.1c-0.9,0.6-1.9,0.2-2.8-0.2c-1.6-0.6-2.8-1.9-3.3-3.5c-0.1-0.3-0.2-0.6-0.4-0.8c0-0.3-0.1-0.7-0.3-0.9
	c0-0.7-0.1-1.4-0.3-2.1c0.4-2.8,0.8-5.6,2.5-8.1c0.1-0.1,0.2-0.3,0.2-0.4c0.4-1.8,1.1-3.5,2-5.1c0.9-2,1.9-4,2.9-6.2
	c-2.2,0.6-4.5,0.4-6.6-0.6c-0.9,1.6-1.8,3-2.5,4.6c-1.9,4.2-4.3,8.2-7.1,11.9c-0.9,1-1.7,2.1-2.4,3.2c-1.1,1.2-2.3,2.3-3.6,3.2
	c-1.1,0.6-2.3,0.9-3.5,0.9c-0.5,0-0.9-0.2-1.4-0.3c-1.3-0.7-2.5-1.8-3.3-3.1c-0.6-1.5-1.1-3-1.4-4.6c-0.2-1.5-0.2-3,0-4.5
	c0.4-2.6,1-5.2,1.8-7.8c0.1-0.4,0.1-0.9,0-1.3c-1.3,1.7-2.5,3.4-3.6,5.2c-1.5,2.7-3.3,5.2-5.4,7.5c-1.1,1.2-2.2,2.3-3.4,3.4
	c-0.6,0.6-1.4,0.9-2.3,0.8c-0.8-0.1-1.6,0-2.4,0.1c-0.6,0.1-1.2-0.2-1.6-0.6c-1.5-1.4-2.4-3.3-2.6-5.3c-0.1-1.2,0-2.4-0.2-3.7
	c-1,1.6-2,3.1-3,4.7c-1.6,2.5-3.4,4.8-5.4,7c-2.3,2.4-5,2.2-7.4,0.4c-1.1-0.9-2.1-1.8-2.9-2.8c-0.5-0.7-0.9-1.4-1.1-2.2
	c-1-2.4-0.6-4.7,0.1-7.1c0.5-1.9,1-3.8,1.6-5.8c0.8-2.5,1.9-4.8,3.1-7.1c0.3-0.8,0.8-1.5,1.3-2.2c2-2.4,2.3-5.6,3.8-8.2
	c-0.5-0.2-0.7,0.2-0.8,0.3c-2.5,2.5-4.9,5.1-6.9,8c-1.1,1.4-2.1,2.7-3.2,4c-0.5,0.7-1.1,1.2-1.8,1.6c-0.4,0.2-0.7,0.6-0.9,1
	c-1.6,2.8-3.4,5.5-5.4,8c-1.3,1.8-2.5,3.8-3.5,5.8c-0.6,1.3-2.1,1.9-3.4,1.3c-0.4-0.2-0.8-0.5-1-0.8c-0.6-0.7-1-1.7-1-2.6
	c-0.1-3.5,0.1-7,0.8-10.5c0.6-3.3,1.2-6.6,1.9-9.8c1.3-6.1,3.1-12.2,5.1-18.1c0.8-2.4,1.8-4.7,2.9-6.9c0.1-0.2,0.2-0.5,0.2-0.7
	c0.9-1.8,1.8-3.7,2.8-5.5s1.8-3.3,2.6-5c0.3-0.6,0.6-1.3,0.9-2c0.1-0.4,0.3-0.8,0.6-1.2c0.2-0.1,0.4-0.4,0.4-0.6
	c0-1.1,0.4-2.1,1.1-2.9c3-4.6,6-9.2,9.4-13.6c1.6-2.2,3.6-4.1,5.8-5.6c1.6-1.1,3.5-1.6,5.4-1.5c2.3,0.2,4,2.1,4.1,4.4
	c-0.1,1.1,0,2.2,0.2,3.3c0.1,0.9,0,1.8-0.3,2.6c-0.6,2.9-1.3,5.8-2.3,8.7c-1.5,4.1-3.3,8.1-5.5,11.9c-1.1,1.9-2.1,3.7-3.2,5.6
	c-1.3,1.8-2.5,3.6-3.8,5.4c-0.9,1.2-1.9,2.2-3,3.1c-0.7,0.6-1.4,1.2-1.9,2c-2,3.1-4.7,5.6-7.3,8.2c-0.8,0.8-1.6,1.6-2.5,2.4
	c-0.8,0.8-1.4,1.7-1.7,2.8c-1.6,4.7-3.1,9.4-4.5,14.2c-0.1,0.3-0.1,0.6-0.1,0.9c-0.2,0.2-0.3,0.5-0.1,0.6S179.6,85.3,179.7,85.1z
	 M190.5,46.5c-0.5,0.7-0.8,1.6-1,2.4c-1.2,3-2.4,6-3.3,9.1c-0.3,0.9-0.5,1.8-0.7,2.7c0.5-0.4,0.9-1,1.1-1.7c1.1-3.1,2.3-6.1,3.7-9.1
	c0.5-1.1,0.9-2.2,1.2-3.3c0.6-0.4,0.6-1.1,0.9-1.7c2.3-4.5,4.5-9,6.9-13.5c1.6-3,2.9-6.1,4.4-9.1c0.5-0.7,0.8-1.5,0.8-2.4
	c-0.4,0.2-0.6,0.6-0.8,1c-2.2,4.3-4.5,8.5-6.7,12.7c-1.5,3-3,6-4.6,8.9C191.5,43.7,190.9,45.1,190.5,46.5z M198.6,46.2
	c0.4-0.8,1-1.6,1.6-2.3c1.3-2.2,2.6-4.4,3.9-6.6c3.3-5.6,5.8-11.7,7.5-18c0.3-1,0.5-2.1,0.4-3.1c0-0.5-0.2-1-0.4-1.4
	c-0.2-0.3-0.6-0.5-1-0.3c-0.5,0.3-1,0.7-1.3,1.2c-2,2.9-3.9,5.9-5.5,9c-2.8,5.3-5.6,10.6-8.3,15.9c-1.1,1.9-2,3.9-2.8,6
	c-0.3,0.4-0.5,0.8-0.6,1.2c-0.6,2.4-1.4,4.7-2.4,7c-0.6,1.6-1.2,3.2-1.8,4.8c1,0,1.3-0.7,1.8-1.2c2.8-3.2,5.4-6.5,7.9-10
	C197.9,47.7,198.6,47.1,198.6,46.2z M216.9,91.7v0.7c-0.1,0.4,0.1,0.8,0.4,1.1c0.4,0.3,0.8,0,1.1-0.3c0.5-0.4,1-0.9,1.4-1.3
	c3.3-4.1,6.3-8.3,9.2-12.6c0.6-0.8,0.7-1.8,0.4-2.7c-0.3-0.7-0.5-1.4-0.6-2.2c-0.1-0.8-0.6-1.5-0.2-2.4c0.4-1.2-1.2-2.3-2.4-1.8
	c-1,0.4-1.8,1.1-2.4,2c-1,1.5-1.9,3.1-2.7,4.8c-0.1,0.2-0.2,0.4-0.2,0.5c0.1,0.2,0.2,0.5,0.1,0.7c0,0.4-0.4-0.2-0.6,0.2
	c-0.6,1.5-1.3,2.9-1.8,4.4c-0.4,1.2-0.7,2.5-1.1,3.7s-0.2,2.5-0.5,3.7C217,90.6,216.9,91.1,216.9,91.7z"/>
<path class="st2" d="M131.6,52.2c-2.6,5.1-5.3,10-7.6,15.5c1,0.2,1.9,0.3,2.9,0.3c1.4,0,2.9,0.3,4.3-0.3c0.4-0.1,0.7,0.1,0.9,0.4
	c0.3,0.4-0.1,0.7-0.2,0.9c-0.2,0.3-0.5,0.4-0.9,0.5c-1.1,0.4-2.2,0.6-3.4,0.6c-1.2,0-2.3,0.2-3.4,0.6c-1.3,0.4-2.3,1.3-2.8,2.6
	c-0.8,1.6-1.5,3.3-2.2,4.9c-1.3,3.2-2.8,6.4-3.8,9.7c-1.5,4.8-3.5,9.4-5.3,14.2l-2.7,7.3c-0.2,0.6-0.4,1.2-0.7,1.8
	c-1.3,2.7-3,2.8-5.1,1.4c-1.7-1.1-2.5-3.2-1.9-5.1c1.2-4.6,2.7-9.2,4.5-13.6c2.4-6.1,4.8-12.3,7.1-18.4c0.4-0.8,0.7-1.6,0.9-2.5
	c-0.4-0.3-0.7-0.1-1,0c-1.9,0.5-3.8,0.9-5.7,1c-2.3,0.3-4.7,0.6-7,0.9c-1.8,0.2-3.2,1.5-3.5,3.3c-1.6,6.4-3.8,12.7-5.7,19
	c-0.6,1.9-1.1,3.8-1.4,5.8c-0.1,1-0.5,2-1.1,2.7c-0.6,0.7-1.5,0.9-2.3,0.6c-2.2-0.8-3.8-2.6-4.2-4.9c-0.1-0.9,0-1.9,0.4-2.8
	c1.4-5.3,3.1-10.5,4.8-15.7c0.6-1.8,1.2-3.7,1.8-5.5c0.2-0.4,0.2-0.9,0.2-1.3c-0.8-0.3-1.5-0.8-2.2-1.3c-0.5-0.5-1-0.9-0.8-1.7
	c0.2-0.8,0.8-1.3,1.6-1.5c0.8-0.3,1.5-0.5,2.3-0.6c1.1,0,1.5-0.8,1.8-1.6c0.7-1.6,1.3-3.1,1.9-4.7c1.3-3.2,2.6-6.4,3.8-9.6
	c1.7-4,3.3-7.9,5-11.8c0.9-2.1,2.1-4.2,3.2-6.3c0.3-0.7,0.7-1.4,1-2.2c0.4-1,1-1.5,2-1.4c1.7,0.1,3.3,0.8,4.5,2
	c0.9,0.8,1,2.2,0.3,3.2c-0.1,0.2-0.2,0.4-0.4,0.6c-1.3,1.3-1.8,3-2.3,4.6c-0.6,1.8-1.4,3.5-2.3,5.2c-0.8,1.8-1.8,3.5-2.5,5.4
	c-0.4,1-0.9,2-1.3,3c-0.7,1.3-1.2,2.6-1.7,4c-0.7,2.8-1.6,5.5-2.9,8.1c0.6,0.1,1.2,0.1,1.9-0.1c1.3-0.3,2.5-0.6,3.8-0.8
	c2.3-0.3,4.7-0.5,7.1-0.4c2.1,0.1,3.6-0.6,4.4-2.8s1.7-4.6,2.7-6.8c0.8-1.7,1.5-3.4,2.2-5.2c1.2-2.6,2.4-5.2,3.6-7.8
	c1-2.2,1.9-4.5,2.9-6.7c0.4-0.9,0.8-1.8,1.1-2.8c0.1-0.9,1-1.6,1.9-1.5c0.2,0,0.3,0.1,0.5,0.1c2.8,0.5,4.5,2.3,5.6,4.7
	c0.4,0.8,0.3,1.8-0.1,2.6c-0.9,1.6-1.5,3.3-2,5c-0.5,1.1-1,2.3-1.6,3.3C132,51.3,131.7,51.8,131.6,52.2z M100.7,58.4
	c-2.1,3.6-3.8,7.4-5,11.4c0.2,0,0.3,0,0.3,0c1.4-3.1,2.8-6.3,4.2-9.4C100.6,59.8,100.7,59.1,100.7,58.4z M109.1,98.9
	c-1.1,1.6-2.2,3.1-1.9,5.2c0.9-1.4,1.5-3,2-4.6C109.2,99.3,109.1,99.1,109.1,98.9z"/>
<path class="st2" d="M152.7,49.8c-2.7,4-5,8.2-7,12.6c-3.2,7.2-6,14.6-8.4,22.1c-1.1,3.2-1.9,6.6-2.3,10c-0.2,2-0.2,3.9-0.1,5.9
	c0.2,1.5,0.8,2.9,1.7,4.1c0.5,0.6,1.2,1.1,2.1,1.1c1.1,0.2,2.3,0.1,3.4-0.2c3.3-0.9,6.4-2.7,8.9-5.1c4.6-4.2,8.7-9,12.1-14.2
	c0.7-1,1.3-2.1,1.9-3.1c0.2-0.6,0.6-1,1.1-1.4c0.5-0.3,0.8-0.2,0.9,0.3c0.1,0.4,0.1,0.9,0.1,1.3c0,2.5-0.5,5-1.4,7.3
	c-1.3,3.6-3.1,6.9-5.5,9.9c-1.6,2.1-3.4,4-5.3,5.8c-2.1,2-4.4,3.7-6.8,5.2c-2.3,1.4-5.1,1.5-7.5,0.4c-4.6-2-8.7-4.8-11.4-9.2
	c-1.4-2.1-2.2-4.7-2.2-7.2c0-2.1,0.2-4.1,0.6-6.1c0.2-1,0.3-2,0.3-3c0.2-2.6,0.7-5.2,1.6-7.6c1.6-4.9,3.4-9.7,5.1-14.5
	c1-2.4,2.1-4.7,3.4-7c1-2,2.2-4,3.5-6c1-0.5,1.8-1.4,2-2.5c0.4-1,1-1.9,1.7-2.7c1.4-2,2.8-4.1,4.3-6.2c1.8-2.6,3.8-4.9,6.1-7.1
	c1.3-1.3,2.8-2.5,4.4-3.4c3.2-1.8,7.3-1.4,10.1,1c2.7,2.4,4.4,5.6,4.9,9.2c0.4,2.4,0.2,4.9-0.6,7.2c-0.1,0.2-0.1,0.4-0.1,0.6
	c-1.8,4.4-5.3,6.8-9.6,8.4c-0.7,0.3-1.5,0.1-2.2,0.4c-0.3,0.1-0.6-0.1-0.8-0.3c-0.2-0.2-0.2-0.6,0.1-0.8c0,0,0,0,0,0
	c0.8-0.9,1.4-1.9,1.8-3c0.5-0.9,1-1.8,1.4-2.8c0.4-0.7,1.3-1,1.6-1.8c1.2-2.5,2.2-5,3.1-7.6c0.3-0.8,0.5-1.8,0.4-2.7
	c-0.2-1.6-1.3-2.7-2.6-2.5c-0.5,0-1,0.2-1.4,0.5c-0.5,0.5-1.2,0.7-1.9,0.8c-0.3,0-0.6,0.2-0.7,0.5c-0.1,0.6-0.6,0.7-1,1
	c-0.9,0.8-1.8,1.6-2.7,2.5C157.2,42.9,154.8,46.3,152.7,49.8z M152.1,46.7c-0.2,0.1-0.4,0.3-0.6,0.5c-1.1,1.5-2.1,3-3,4.5
	c-2.4,3.8-4.5,7.8-6.3,12c-0.9,2.2-1.8,4.3-2.7,6.5c0.6,0.2,0.7-0.3,0.8-0.5c0.7-1.5,1.4-3.1,2.2-4.6c2.1-4.2,4.2-8.3,6.5-12.4
	c1.1-1.9,2.2-3.8,3.3-5.7c0.2-0.1,0.4-0.4,0.2-0.5S152.3,46.6,152.1,46.7L152.1,46.7z"/>
<path class="st2" d="M304.4,88.9c-0.5-1.8-1-3.6-1.5-5.5c-0.4-1-0.6-2-0.6-3.1c0.5-2.5-0.8-4.6-1-6.9c-0.5-4.6,1.7-7.9,5.7-9.8
	c0.9-0.5,2.1-0.3,2.8,0.4c0.7,0.7,1.4,1.6,1,2.8c-0.1,0.3-0.1,0.6-0.1,0.9c-0.1,0.3-0.1,0.7-0.3,1c-0.1,0.5-0.5,0.2-0.5,0.3
	c-0.4,0.7-0.6,1.4-0.7,2.1c-0.2,1.4,0,2.9,0.4,4.3c0.4,1.2,0.6,2.5,0.8,3.8c0.3,1.2,0,2.4,0.4,3.6s0.6,2.3,0.8,3.5
	c0.1,0.5,0.3,0.9,0.7,1.2c3.2-1.6,6.4-3.3,9.5-5.1c1.6-1,3.1-2.1,4.5-3.3c0.6-0.5,1.2-0.9,1.9-1.2c1.2-0.6,1.9,0,2,1.3
	c0,1.3-0.7,2.5-1.7,3.2c-2,1.6-4.1,3.1-6.2,4.5c-0.2,0.2-0.5,0.3-0.7,0.6l-1.5,0.9c-1.9,1.2-3.9,2.2-5.9,3.2c-0.9,0.3-1.3,1.1-1.1,2
	c0.1,0.2,0.1,0.5,0.1,0.7c0.3,1.6,0.4,3.3,0.4,4.9c-0.2,0.5-0.3,1.2-0.2,1.7c0.1,4.2-1.7,8.3-4.9,11.1c-1.9,1.8-4.4,2.8-7,3
	c-2.3,0.3-4.7-0.1-6.9-0.9c-1.7-0.6-3.2-1.8-4.1-3.3c-0.2-0.3-0.3-0.6-0.5-0.9c-0.3-0.8-0.1-1.7-0.9-2.4c-0.2-0.2,0-0.8,0.1-1.2
	c0.4-1.7,1.2-3.4,2.4-4.8c0.2-0.2,0.4-0.5,0.5-0.7c2.8-2.7,5.8-5.2,9.2-7.2c0.6-0.4,1.3-0.6,1.8-1c0.8-0.6,1.8-1.1,1.5-2.4
	C304.7,89.7,304.6,89.3,304.4,88.9z M308.4,109.2c-0.1,0.1-0.3,0.1-0.4,0.2c-1.3,1.2-2.7,2.1-4.3,2.8c2-0.1,3.8-1.2,4.9-2.9
	c0.1-0.1,0.3-0.2,0.1-0.3S308.5,109.1,308.4,109.2L308.4,109.2z M300.2,99.5c-2,1.1-3.7,2.5-5.2,4.3c-0.8,1-1.4,2.1-1.7,3.3
	c-0.4,0.8,0,1.8,0.8,2.2c0.2,0.1,0.5,0.2,0.7,0.2c0.8,0.1,1.6,0.1,2.4-0.1c1-0.2,1.9-0.7,2.9-0.9c0.9-0.2,1.7-0.8,2.1-1.6
	c1-1.4,1.7-2.9,2.3-4.5c0.4-0.8,0.5-1.7,0.5-2.6c0-1.3,0.6-2.6-0.1-3.9c-0.3,0-0.5,0.2-0.7,0.4c-0.8,0.8-1.7,1.5-2.7,2.1
	C301.1,98.7,300.6,99.1,300.2,99.5L300.2,99.5z"/>
<path class="st1" d="M313.5,99.2c0-1.6-0.1-3.3-0.4-4.9c0-0.2,0-0.5-0.1-0.7c-0.2-0.9,0.2-1.7,1.1-2c2-1,4-2.1,5.9-3.2
	c0,0.1,0.1,0.2,0.1,0.2c1.2,0.2,2.4,0.1,3.6-0.1c0.2-0.1,0.5-0.1,0.7-0.1c4.3,0.2,8.6-0.2,13-0.4c7.7-0.3,15.3,0.1,23-0.3
	c5.9-0.3,11.9-0.1,17.8-0.2c0.4,0,0.9-0.2,1.4,0.2c-0.6,0.8-1.4,1.5-2.4,1.9c-1.3,0.8-2.6,1.6-3.9,2.3c-1.2,0.7-2.5,1.3-3.8,1.8
	c-1.7,0.7-3.4,1.2-5.1,1.7c-1.4,0.3-2.9,0.6-4.3,0.8s-3.2,0-4.8,0.3c-1.7,0.2-3.4,0.3-5.1,0.2c-0.8,0.2-1.7,0.3-2.5,0.3
	c-0.8-0.2-1.7-0.1-2.5,0.2c-0.3,0.2-0.8,0-1.2,0c-1.4,0-2.9,0-4.3,0.3c-1.4,0.3-2.9-0.1-4.3,0.3c-0.9,0.2-1.9,0.2-2.9,0
	c-1-0.1-1.9,0.4-3,0.3c-0.9-0.2-1.9-0.1-2.8,0.3c-0.3,0.1-0.7,0.1-1,0c-2.1-0.1-4.2,0.1-6.3,0.4C317.4,99.2,315.5,99.2,313.5,99.2z"
	/>
<path class="st1" d="M120.5,53.8c-0.6,1.8-1.3,3.5-2.2,5.2c-1,2.2-1.8,4.5-2.7,6.8c-0.9,2.3-2.3,2.8-4.4,2.8c-2.4-0.1-4.7,0-7.1,0.4
	c-1.3,0.2-2.5,0.5-3.8,0.8c-0.6,0.1-1.2,0.1-1.9,0.1c1.3-2.6,2.2-5.3,2.9-8.1c0.4-1.4,1-2.7,1.7-4c0.4-1,0.9-2,1.3-3
	c0.7,0,1.3,0,2,0c2,0,4-0.3,6-0.4c1.2,0,2.4-0.1,3.5-0.3C117.4,53.8,118.9,53.7,120.5,53.8z"/>
<path class="st2" d="M291.9,62.5c0.4-0.3,0.9-0.3,1.3-0.6c-0.1,0.7-0.4,1.3-0.9,1.8c-0.4,0.5-0.7,1.1-1.5,0.9
	c-0.3-0.1-0.4,0.1-0.5,0.4c-0.6,1.2-1.7,2.2-3,2.6c-0.7,0.3-1.1,0-1.4-0.6c-0.2-0.4-0.3-0.7-0.5-1.1c-0.3-0.5-0.1-1.1-0.2-1.6
	s0.4-0.9,0.8-1.3c1.1-0.9,1.9-2.2,2.2-3.6c0.3-1,0.6-1.9,1-2.8c0.2-0.6,0.3-1.3,0.3-1.9c0-0.2-0.1-0.5-0.3-0.7
	c-0.6-0.9-0.6-0.9,0-1.7c0.2-0.2,0.7-0.3,0.3-0.8c-0.1-0.2,0.3-0.4,0.6-0.5c3.4-1.2,5.7,0.5,6.7,3.5c0.2,0.6-0.2,1.2-0.5,1.7
	c-0.4,0.8-1,1.4-1.7,1.8c-0.5,0.2-0.9,0.7-1,1.2c-0.2,0.8-0.6,1.5-1.3,2C291.9,61.5,291.7,62,291.9,62.5z"/>
<path class="st1" d="M253.3,100.8c-0.9,0.1-1.7,0.1-2.6,0c-2.6-0.3-5.3-0.4-7.9-0.3c-0.2,0-0.5-0.1-0.5-0.4c0,0,0,0,0-0.1
	c0.7-1.1,1.5-2.2,2.4-3.2c2.7-3.7,5.1-7.7,7.1-11.8c0.7-1.6,1.6-3,2.5-4.6c2.1,1,4.4,1.2,6.6,0.6c-1,2.2-2,4.2-2.9,6.2
	c-0.9,1.6-1.6,3.3-2,5.1c0,0.1-0.1,0.3-0.2,0.4C254.1,95.2,253.8,98,253.3,100.8z"/>
<path class="st1" d="M216.9,91.7c0-0.5,0.1-1,0.3-1.6c0.4-1.2,0.1-2.5,0.5-3.7s0.7-2.5,1.1-3.7c0.4-1.5,1.2-2.9,1.8-4.4
	c0.2-0.4,0.5,0.2,0.6-0.2c0.1-0.2,0-0.5-0.1-0.7c-0.1-0.1,0.1-0.3,0.2-0.5c0.8-1.7,1.7-3.3,2.7-4.8c0.6-0.9,1.4-1.6,2.4-2
	c1.3-0.5,2.8,0.6,2.4,1.8c-0.3,1,0.1,1.6,0.2,2.4c0.1,0.7,0.3,1.5,0.6,2.2c0.3,0.9,0.2,1.9-0.4,2.7c-2.9,4.3-6,8.6-9.2,12.6
	c-0.4,0.5-0.9,0.9-1.4,1.3c-0.3,0.2-0.7,0.5-1.1,0.3c-0.3-0.2-0.5-0.7-0.4-1.1L216.9,91.7z"/>
<path class="st1" d="M192.6,46.5c2,0.2,4-0.5,6-0.3c0,0.9-0.7,1.5-1.2,2.2c-2.4,3.5-5.1,6.8-7.9,10c-0.4,0.5-0.8,1.2-1.8,1.2
	c0.6-1.7,1.2-3.2,1.8-4.8c1-2.3,1.8-4.6,2.4-7C192.2,47.3,192.4,46.9,192.6,46.5z"/>
<path class="st1" d="M190.5,46.5h1c-0.3,1.2-0.7,2.3-1.2,3.3c-1.4,3-2.7,6-3.8,9.2c-0.2,0.7-0.6,1.3-1.1,1.7
	c0.2-0.9,0.4-1.8,0.7-2.7c0.9-3.1,2.2-6.1,3.3-9.1C189.6,48.1,190,47.2,190.5,46.5z"/>
<path class="st2" d="M179.7,85.1c-0.1,0.1,0,0.6-0.4,0.4s-0.1-0.4,0.1-0.6L179.7,85.1z"/>
<path class="st1" d="M100.7,58.4c0.1,0.7-0.1,1.4-0.5,2c-1.4,3.1-2.8,6.3-4.2,9.4c0,0-0.2,0-0.3,0C96.9,65.8,98.6,62,100.7,58.4z"/>
<path class="st1" d="M109.1,98.9c0,0.2,0.1,0.4,0.1,0.6c-0.5,1.6-1.1,3.2-2,4.6C106.9,102,108,100.6,109.1,98.9z"/>
<path class="st1" d="M152.3,46.9c-1.1,1.9-2.2,3.8-3.3,5.7c-2.3,4-4.4,8.2-6.5,12.4c-0.8,1.5-1.4,3.1-2.2,4.6
	c-0.1,0.3-0.2,0.7-0.8,0.5c0.9-2.2,1.8-4.4,2.7-6.5c1.8-4.2,3.9-8.2,6.3-12c1-1.5,2-3,3-4.5c0.2-0.2,0.4-0.3,0.6-0.5L152.3,46.9z"/>
<path class="st2" d="M152.1,46.7c0.2-0.1,0-0.6,0.4-0.3s0.1,0.4-0.2,0.5L152.1,46.7z"/>
<path class="st2" d="M305.1,99.9c-1.6,0.1-3.2-0.5-4.9-0.3c0.4-0.4,0.9-0.8,1.4-1.1c1-0.6,1.9-1.3,2.7-2.1c0.2-0.2,0.4-0.3,0.7-0.4
	C305.7,97.3,305.1,98.6,305.1,99.9z"/>
<path class="st1" d="M308.6,109.4c-1,1.7-2.9,2.8-4.9,2.9c1.6-0.7,3-1.7,4.3-2.8c0.1-0.1,0.3-0.1,0.4-0.2L308.6,109.4z"/>
<path class="st2" d="M308.4,109.2c0-0.1,0.1-0.3,0.3-0.2s0,0.2-0.1,0.3L308.4,109.2z"/>
</svg>
