<svg id="Layer_1" data-name="Layer 1" xmlns="http://www.w3.org/2000/svg" viewBox="0 0 400 156"><defs><style>.cls-1{fill:#4f4f4f;}.cls-2{fill:#fddcba;}.cls-3{fill:#050403;}</style></defs><path class="cls-1" d="M135.08,131.66v8.52H134v-3.87h-4.69v3.87h-1.08v-8.52h1.08v3.69H134v-3.69Z"/><path class="cls-1" d="M147.56,139.22v1h-5.78v-8.52h5.67v1h-4.59v2.76h4v.9h-4v2.94Z"/><path class="cls-1" d="M153.69,140.18v-8.52h1.08v7.56h4.76v1Z"/><path class="cls-1" d="M171.14,139.22v1h-5.78v-8.52H171v1h-4.59v2.76h4v.9h-4v2.94Z"/><path class="cls-1" d="M178.35,133.68v6.5h-1.08v-8.52h.84l5.28,6.64v-6.62h1.08v8.5h-.91Z"/><path class="cls-1" d="M193.76,131.66h.91l3.48,8.52H197l-1-2.49h-3.57l-1,2.49h-1.15Zm2,5.19-1.53-3.94-1.59,3.94Z"/><path class="cls-1" d="M210.72,135.86a4.57,4.57,0,0,1,.27-1.53,4.22,4.22,0,0,1,.79-1.36,3.9,3.9,0,0,1,1.28-1,3.77,3.77,0,0,1,1.71-.37,3.62,3.62,0,0,1,2,.51,3.21,3.21,0,0,1,1.21,1.35l-.85.55a2.68,2.68,0,0,0-.46-.69,2.45,2.45,0,0,0-.59-.44,2.69,2.69,0,0,0-.65-.24,3.09,3.09,0,0,0-.66-.07,2.69,2.69,0,0,0-1.26.29,3,3,0,0,0-.92.77,3.39,3.39,0,0,0-.55,1.07,3.75,3.75,0,0,0-.19,1.19,3.59,3.59,0,0,0,.84,2.35,3,3,0,0,0,.94.75,2.58,2.58,0,0,0,1.17.27,2.71,2.71,0,0,0,.69-.08,2.84,2.84,0,0,0,.68-.27,2.69,2.69,0,0,0,.61-.47,2.39,2.39,0,0,0,.46-.68l.9.5a2.71,2.71,0,0,1-.57.84,3.6,3.6,0,0,1-.83.62,3.76,3.76,0,0,1-1,.38,4,4,0,0,1-1,.14,3.32,3.32,0,0,1-1.6-.39,4.26,4.26,0,0,1-1.27-1,4.59,4.59,0,0,1-.83-1.4A4.72,4.72,0,0,1,210.72,135.86Z"/><path class="cls-1" d="M231,131.66v8.52h-1.08v-3.87h-4.69v3.87h-1.08v-8.52h1.08v3.69h4.69v-3.69Z"/><path class="cls-1" d="M240.25,131.66h.91l3.48,8.52h-1.15l-1-2.49h-3.57l-1,2.49h-1.15Zm2,5.19-1.53-3.94-1.59,3.94Z"/><path class="cls-1" d="M250.44,140.18v-8.52h3.64a2.24,2.24,0,0,1,1,.24,2.51,2.51,0,0,1,.82.62,2.91,2.91,0,0,1,.53.88,2.61,2.61,0,0,1,.2,1,3.14,3.14,0,0,1-.13.86,2.88,2.88,0,0,1-.36.75,2.75,2.75,0,0,1-.56.57,2.29,2.29,0,0,1-.74.35l2.06,3.26h-1.22l-1.95-3.06h-2.25v3.06Zm1.08-4h2.58a1.21,1.21,0,0,0,.6-.14,1.61,1.61,0,0,0,.47-.39,2.07,2.07,0,0,0,.28-1.92,2.09,2.09,0,0,0-.34-.56,1.41,1.41,0,0,0-.49-.39,1.38,1.38,0,0,0-.59-.14h-2.51Z"/><path class="cls-1" d="M263,140.18v-8.52h1.08v8.52Z"/><path class="cls-1" d="M275.76,133.45a1.85,1.85,0,0,0-.39-.32,2.74,2.74,0,0,0-.54-.28,3.1,3.1,0,0,0-.65-.21,3.57,3.57,0,0,0-.74-.08,2.32,2.32,0,0,0-1.46.38,1.24,1.24,0,0,0-.46,1,1.2,1.2,0,0,0,.13.57,1.14,1.14,0,0,0,.42.39,2.91,2.91,0,0,0,.7.28c.28.08.61.17,1,.26a8.48,8.48,0,0,1,1.19.33,3.11,3.11,0,0,1,.91.46,1.86,1.86,0,0,1,.58.67,2.18,2.18,0,0,1,.2,1,2.21,2.21,0,0,1-.24,1.06,2.16,2.16,0,0,1-.66.75,2.83,2.83,0,0,1-1,.43,5.17,5.17,0,0,1-1.22.14,5.52,5.52,0,0,1-1.87-.31,5.25,5.25,0,0,1-1.6-.89l.52-.91a2.73,2.73,0,0,0,.5.4,3.73,3.73,0,0,0,.69.37,4.33,4.33,0,0,0,.84.26,4.17,4.17,0,0,0,.94.11A2.59,2.59,0,0,0,275,139a1.06,1.06,0,0,0,.5-1,1.09,1.09,0,0,0-.16-.61,1.39,1.39,0,0,0-.47-.42,3.6,3.6,0,0,0-.78-.32c-.3-.09-.66-.19-1.05-.28s-.81-.22-1.14-.34a3.16,3.16,0,0,1-.82-.43,1.73,1.73,0,0,1-.5-.61,2.08,2.08,0,0,1-.16-.87,2.51,2.51,0,0,1,.22-1.08,2.45,2.45,0,0,1,.64-.79,2.76,2.76,0,0,1,1-.48,4.4,4.4,0,0,1,1.23-.17,4.33,4.33,0,0,1,1.56.27,4.17,4.17,0,0,1,1.23.71Z"/><path class="cls-2" d="M253.86,103.83a8.45,8.45,0,0,1-2.33.32c-1.51.25-3.07.07-4.54.57a.75.75,0,0,1-.3,0c-1.81-.22-3.57.41-5.37.31-.95-.06-1.83.4-2.8.32a18.09,18.09,0,0,0-2.65.21c-1.43.1-2.84.43-4.3.42a13.94,13.94,0,0,0-3.94.51,1.3,1.3,0,0,1-.44,0,25.24,25.24,0,0,0-5.21.37c-1.5.12-3,.08-4.47.28-2.11.27-4.23.44-6.35.62-2.42.21-4.82.47-7.26.6-2.16.12-4.33.4-6.49.6a61,61,0,0,1-7.27.55c-.67,0-1.19.43-1.89.35a2.34,2.34,0,0,0-1.89.23.41.41,0,0,1-.29,0c-1.86-.21-3.68.25-5.53.33-1.69.07-3.38.21-5.06.35a26.28,26.28,0,0,0-2.95.26c-1.59.33-3.2.1-4.76.33-1.25.18-2.49.12-3.71.27-2.16.27-4.33.45-6.5.64-1.34.12-2.7.07-4,.3s-2.63,0-3.85.31c-1.71.44-3.49-.13-5.15.54a.37.37,0,0,1-.15,0c-2.1-.12-4.17.54-6.28.29-.92-.11-1.72.4-2.64.34a4.25,4.25,0,0,0-2.65.27.61.61,0,0,1-.3,0c-2.26-.19-4.48.46-6.74.32-1-.06-1.92.41-3,.32a4.86,4.86,0,0,0-2.79.27.37.37,0,0,1-.15,0c-1.86-.15-3.66.4-5.53.33a17.62,17.62,0,0,0-4.83.56,4.08,4.08,0,0,1-1.21,0c-2.46-.15-4.88.53-7.34.31-1.51.53-3.1.09-4.61.34s-3,.06-4.46.32-3.11,0-4.62.29-3,0-4.46.32a32.15,32.15,0,0,1-5.54.23,25.93,25.93,0,0,1-2.79.35,4.25,4.25,0,0,0-2.65.26c-.11.07-.3,0-.45,0-3.21-.2-6.4.47-9.62.32a12.93,12.93,0,0,1-4.08-.56,24.52,24.52,0,0,0-3.75-.67c-1.83-.37-3.68-.61-5.52-.83a16.49,16.49,0,0,0-4.15-.36c-1.07.14-2-.38-3.1-.33a14.69,14.69,0,0,1-3.18,0c-2.9-.54-5.81-.17-8.71-.26-1.92-.07-3.84,0-5.76,0-1,0-1.93.46-2.95.35s-1.13-.18-1-1.37a8.68,8.68,0,0,0,0-3.29c-.42-1.55-.39-3.21-1.13-4.68.14-1.54-.22-3.07.25-4.62a4.83,4.83,0,0,1,2.17-2.72A13.16,13.16,0,0,1,25.33,98c3.5-.78,7.05-.55,10.68-.59a6.85,6.85,0,0,0-.11-3.09A4.33,4.33,0,0,1,35.81,93c-.06-.8-.09-.82-1-1-2.51-.6-5-1.14-7.51-1.85A41.15,41.15,0,0,1,23,88.45a36,36,0,0,1-7.48-4c-.6-.42-1.21-.84-1.79-1.3a2.47,2.47,0,0,1-1-2.19q.1-6.58,0-13.19A2.12,2.12,0,0,1,14,65.6a35,35,0,0,1,7.24-3.16,28.2,28.2,0,0,1,6-1.41,7.19,7.19,0,0,0,2.09-.59c1.23-.46,2.54-.2,3.78-.57A37.84,37.84,0,0,1,38.6,59c1.16-.17,2.34-.36,3.54-.43a10.91,10.91,0,0,0,3.19-.47.91.91,0,0,1,.43-.07,18,18,0,0,0,4.46-.38c1.65-.2,3.31,0,4.91-.28,1.45-.24,2.92,0,4.31-.31,1.61-.32,3.21,0,4.78-.28,1.94-.31,3.92,0,5.82-.34s3.91,0,5.83-.27c2.4-.33,4.83,0,7.19-.34,2.21-.29,4.42,0,6.59-.27a54.85,54.85,0,0,1,6.14-.28q-1.91,4.8-3.82,9.6c-.62,1.57-1.24,3.15-1.9,4.71-.34.79-.71,1.52-1.8,1.57a10.74,10.74,0,0,0-2.32.56,2,2,0,0,0-1.57,1.45c-.17.76.38,1.21.84,1.67a12.68,12.68,0,0,0,2.21,1.27,3.81,3.81,0,0,1-.22,1.34C86.59,79.29,86,81.14,85.39,83,83.65,88.19,82,93.41,80.55,98.7a5.86,5.86,0,0,0-.36,2.8,6.58,6.58,0,0,0,4.23,4.91,2,2,0,0,0,2.32-.56,5.09,5.09,0,0,0,1.13-2.73,42.23,42.23,0,0,1,1.42-5.82c1.95-6.33,4.14-12.58,5.71-19A4,4,0,0,1,98.5,75c2.33-.3,4.66-.63,7-.93a26.51,26.51,0,0,0,5.73-1c.33-.12.64-.31,1,0a15.61,15.61,0,0,1-.92,2.47c-2.28,6.18-4.69,12.31-7.11,18.43a113.88,113.88,0,0,0-4.48,13.64,4.43,4.43,0,0,0,1.89,5.1c2.17,1.41,3.79,1.29,5.12-1.37.28-.58.46-1.22.68-1.82l2.7-7.3c1.74-4.73,3.78-9.34,5.26-14.17,1-3.34,2.55-6.49,3.84-9.73.66-1.67,1.39-3.32,2.16-4.94a4.56,4.56,0,0,1,2.81-2.55,10.92,10.92,0,0,1,3.38-.63,10.8,10.8,0,0,0,3.38-.62,1.81,1.81,0,0,0,.89-.52c.16-.23.52-.52.22-.93a.78.78,0,0,0-.91-.38c-1.4.65-2.87.26-4.31.3a24,24,0,0,1-2.93-.31c2.31-5.41,5-10.39,7.63-15.45a7.79,7.79,0,0,0,2.62-.25c.82-.26,1.78.22,2.6-.33a.26.26,0,0,1,.15,0c1.58.17,3.11-.51,4.7-.32a61.08,61.08,0,0,0-3.47,5.95,59.71,59.71,0,0,0-3.44,7c-1.77,4.81-3.51,9.64-5.15,14.51a26.74,26.74,0,0,0-1.64,7.59,19.89,19.89,0,0,1-.28,3,37,37,0,0,0-.59,6.12,12.74,12.74,0,0,0,2.19,7.23c2.75,4.37,6.81,7.18,11.44,9.22a8,8,0,0,0,7.5-.43,39.72,39.72,0,0,0,6.82-5.19,44.79,44.79,0,0,0,5.29-5.8,34,34,0,0,0,5.51-9.91,21.36,21.36,0,0,0,1.37-7.34,6.06,6.06,0,0,0-.13-1.35c-.13-.48-.49-.56-.95-.28A3.23,3.23,0,0,0,165,83c-.6,1-1.18,2.1-1.85,3.1a75.79,75.79,0,0,1-12.1,14.22,21.29,21.29,0,0,1-8.91,5.08,8.86,8.86,0,0,1-3.43.21,2.94,2.94,0,0,1-2.06-1.13,7.58,7.58,0,0,1-1.71-4.06,38.73,38.73,0,0,1,.11-5.9,49.47,49.47,0,0,1,2.31-10,223.62,223.62,0,0,1,8.36-22.09,83.22,83.22,0,0,1,7-12.6c1.84.15,3.64-.37,5.49-.36a9.17,9.17,0,0,0,2.61-.28c1.34-.43,2.67-.15,4-.25.16,0,.23.17.26.32a20.2,20.2,0,0,1-1.4,2.79A8.87,8.87,0,0,1,161.84,55a.57.57,0,0,0-.07.81c.18.25.47.47.77.34.7-.31,1.48-.16,2.19-.42,4.28-1.57,7.81-4,9.62-8.38a.46.46,0,0,0,.54.39c.72-.1,1.49.24,2.16-.28a.47.47,0,0,1,.29,0c1.69.19,3.32-.51,5-.29a1.79,1.79,0,0,1-.22.7,66.19,66.19,0,0,0-2.85,6.92,158.3,158.3,0,0,0-5.12,18.12c-.72,3.26-1.31,6.56-1.94,9.84a45.64,45.64,0,0,0-.83,10.49,4.28,4.28,0,0,0,1,2.61,2.58,2.58,0,0,0,4.43-.52,40,40,0,0,1,3.5-5.78,65.92,65.92,0,0,0,5.39-8,1.92,1.92,0,0,1,.9-1A5,5,0,0,0,188.45,79c1.12-1.29,2.18-2.63,3.23-4a59.74,59.74,0,0,1,6.92-8c.18-.16.3-.52.84-.31-1.55,2.64-1.85,5.77-3.81,8.19a13,13,0,0,0-1.25,2.22,45.12,45.12,0,0,0-3.13,7.12c-.59,1.91-1.12,3.83-1.62,5.76-.61,2.35-1,4.71-.06,7.07a7.39,7.39,0,0,0,1.11,2.23,21.29,21.29,0,0,0,2.94,2.84c2.39,1.75,5.14,2,7.42-.43a45.51,45.51,0,0,0,5.41-7q1.49-2.34,3-4.68c.21,1.3.11,2.52.23,3.72a8.2,8.2,0,0,0,2.55,5.3,2,2,0,0,0,1.63.62,12.28,12.28,0,0,1,2.42-.06,2.86,2.86,0,0,0,2.3-.84A39.31,39.31,0,0,0,222,95.31a38.36,38.36,0,0,0,5.51-7.52A52.51,52.51,0,0,1,231,82.55a2,2,0,0,1,0,1.28,43.32,43.32,0,0,0-1.83,7.86,17.38,17.38,0,0,0,0,4.5,20.8,20.8,0,0,0,1.39,4.57,11.61,11.61,0,0,0-2.71.08,5.75,5.75,0,0,1-2.2.23c-.83-.11-1.54.34-2.34.33-2,0-3.87.51-5.83.31a1.09,1.09,0,0,0-.44,0,12.19,12.19,0,0,1-3.93.57,5.61,5.61,0,0,0-1.36,0,23.21,23.21,0,0,1-5,.59,2.07,2.07,0,0,0-.61,0,14.73,14.73,0,0,1-4.07.59,3.21,3.21,0,0,0-.76,0,15.78,15.78,0,0,1-4.37.6,3.28,3.28,0,0,0-.89.07c-1.61.47-3.29.49-4.92.83-1.06.22-2.16.24-3.24.36a40.32,40.32,0,0,1-4.53.56,3.2,3.2,0,0,0-.42.1c-.91.17-1.82.4-2.74.49a25.13,25.13,0,0,0-2.78.39c-1.58.31-3.19.42-4.76.8-1.85.45-3.78.55-5.63,1-1.06.25-2.22.11-3.41.9a43.69,43.69,0,0,0,5.12-.28c2.07-.41,4.22-.4,6.34-.61,2-.19,3.92-.39,5.89-.62,1.42-.17,2.87,0,4.31-.3a24,24,0,0,1,2.94-.27,28.43,28.43,0,0,1,5.37-.38,2.16,2.16,0,0,0,1.19,0,2.28,2.28,0,0,1,1.6-.23c.64.1,1.13-.32,1.73-.33,1.64,0,3.28-.06,4.92-.23a22.84,22.84,0,0,1,5.22-.38,1.36,1.36,0,0,0,.45,0,26.88,26.88,0,0,1,5-.59,13.55,13.55,0,0,0,2.86-.07,6.75,6.75,0,0,1,2.51-.22c.87.07,1.64-.34,2.49-.34a10.64,10.64,0,0,0,4-.29c1.9.22,3.77-.36,5.67-.31.7,0,1.41,0,2.12,0,.21,0,.4,0,.47-.25.48,0,.93.23,1.41.28a6.54,6.54,0,0,0,3.47-.89c.11.34.38.26.62.25,1.59-.1,3.18-.09,4.77-.22,2-.15,4-.42,6-.39,1.16,0,2.32,0,3.48,0A1.23,1.23,0,0,1,253.86,103.83Zm-90.92,5.91a1,1,0,0,0,.22.13c.12,0,.26,0,.22-.17s-.14-.1-.22-.09S163,109.69,162.94,109.74Z"/><path class="cls-2" d="M292.11,100.8c-.05-.24-.29-.42-.41-.28-.57.7-1.33.58-2.07.57-2.05,0-4.07.52-6.13.31-1.25.52-2.56.26-3.85.29a23,23,0,0,0-4.82.61.38.38,0,0,1-.15,0c-2.11-.22-4.17.52-6.27.29,3.93-3.92,6.95-8.55,10.21-13.09.85,1.1,1.71,2.09,2.42,3.18a7.84,7.84,0,0,0,5.2,3.21,3.62,3.62,0,0,0,3-.6,12.1,12.1,0,0,0,2.82-2.71c2.64-3.61,5.25-7.23,7.87-10.86a8.75,8.75,0,0,0,.78-1.28,15.72,15.72,0,0,0,.61-1.53,1.37,1.37,0,0,0-.35-1.64c-.54-.4-1.17-.12-1.69.22a3.33,3.33,0,0,0-.77.73,50.53,50.53,0,0,0-3.5,4.72c-.21.34-.52.74-.47,1.07.08.64-.31.92-.67,1.26-1.68,1.59-3.56,3-5.34,4.42a8.1,8.1,0,0,1-1.94,1.14c-1.44.63-2.33,0-2.41-1.53a11.08,11.08,0,0,1,.73-3.65c.67-2.39,2.17-4.45,2.65-6.94a4.12,4.12,0,0,1,1.62-2.47,3.16,3.16,0,0,0,1-1.63c.34-1.11.32-1.27-.63-1.94a9.83,9.83,0,0,0-3.72-1.52,3.76,3.76,0,0,0-2.75.53,5.47,5.47,0,0,0-2.23,3.11,37.42,37.42,0,0,0-1.55,5.3,11.79,11.79,0,0,1-2.06,5.06c-3.14,3.92-6.13,8-9.24,11.92A17.56,17.56,0,0,1,266.87,99a26.38,26.38,0,0,1-4,3.26,6.18,6.18,0,0,1-1.34.66c-.47.17-.76,0-.77-.59a5.05,5.05,0,0,1,.22-1.63c.35-1.21.93-2.31,1.36-3.48a101.65,101.65,0,0,1,4-10c.85-1.75,1.66-3.53,2.38-5.33.91-2.28,0-3.32-1.82-4a10.28,10.28,0,0,0-3.83-.63,14.44,14.44,0,0,1-2.87-.09c-1.66-.31-2.82-1.31-1.75-3.18.37-.66.78-1.29,1.15-1.94a1,1,0,0,1,.42-.39,3,3,0,0,0,1.09-2.67,1.35,1.35,0,0,0-.92-.93,3.91,3.91,0,0,1-.84-.26,4.16,4.16,0,0,0-4.28.54,7.75,7.75,0,0,0-3.19,4.45,5.63,5.63,0,0,0,.53,4.51,1.4,1.4,0,0,1-.11,1.67c-2.87,4.42-5.62,8.92-8.76,13.15a36,36,0,0,1-4.18,5A4.86,4.86,0,0,1,238,98a.76.76,0,0,1-1.11-.45,4.2,4.2,0,0,1-.3-1.92c.27-1.53.39-3.07.68-4.6.34-1.75,1-3.46.76-5.31a2.39,2.39,0,0,1,.2-1,50.87,50.87,0,0,1,2.52-6.24c.47-.88.89-1.79,1.31-2.7a3.46,3.46,0,0,0,.1-2.78A4.22,4.22,0,0,0,236,70.89a12,12,0,0,0-3.46,3.2,1.21,1.21,0,0,1-.47-.84A12.59,12.59,0,0,0,229,67.49a5,5,0,0,0-6.58-.57,26.56,26.56,0,0,1-3.25,2.16,4.86,4.86,0,0,0-1.5,1.24A34.23,34.23,0,0,0,212.91,78c-.93,2-1.47,4.18-3.09,5.93-3,3.3-5.91,6.76-9.16,9.86A10.64,10.64,0,0,1,199.13,95a1.4,1.4,0,0,1-1.41.31c-.57-.29-.53-.91-.52-1.47a.86.86,0,0,1,0-.16A25.8,25.8,0,0,1,198,90c.37-1,.59-2,.88-3,.09-.3.22-.73,0-.86-.72-.49-.24-1-.08-1.47a101.78,101.78,0,0,1,4.24-9.91c.88-2,2-3.83,2.72-5.85a6.75,6.75,0,0,0,.48-4.36C205.59,62.31,203,60,200,61.64c-.43.25-.89.46-1.3.75a30.31,30.31,0,0,0-5.18,5.07q-3.37,4-6.64,8a62.26,62.26,0,0,0-4.49,5.86,22.76,22.76,0,0,1-2.72,3.78l-.21-.19a5.41,5.41,0,0,1,.12-.9c1.43-4.77,2.89-9.53,4.49-14.25A6.81,6.81,0,0,1,185.82,67c.85-.8,1.67-1.62,2.49-2.44,2.61-2.59,5.35-5.07,7.34-8.21a7.68,7.68,0,0,1,1.86-2,18.41,18.41,0,0,0,3-3.14c1.38-1.73,2.53-3.6,3.84-5.37l14.55,0c3.57,0,7.12.6,10.68.28,5.78-.51,11.58,0,17.35-.35,2.35-.13,4.73,0,7-.29s4.42,0,6.59-.29c1.7-.22,3.41,0,5.07-.31,2-.35,4,0,6-.29,1.7-.23,3.42,0,5.06-.33a32,32,0,0,1,4.78-.23c3.41-.1,6.83-.19,10.22-.41,3-.19,6-.15,9-.18,2.81,0,5.59-.46,8.41-.35s5.57-.14,8.33.07a64.66,64.66,0,0,0,8.11.21,19.06,19.06,0,0,0,4.68-.54,3.5,3.5,0,0,1,1.21,0,10.1,10.1,0,0,0,3.49-.53,2.66,2.66,0,0,1,.74-.07,25.47,25.47,0,0,0,5.06-.84,2.66,2.66,0,0,1,.74-.07,18.43,18.43,0,0,0,4.49-.76,26.65,26.65,0,0,0,2.76-.41c1.72-.51,3.57-.54,5.35-.92a20.51,20.51,0,0,0,2.78-.35c1.16-.4,2.4-.12,3.54-.35a24.13,24.13,0,0,1,3.26-.26,15.31,15.31,0,0,1,6.51,1.1,6.43,6.43,0,0,1,3.54,2.71,3.74,3.74,0,0,1,.57,1.79c0,.8,0,1.61,0,2.49l-3.07.41c-2.26.3-4.54.43-6.8.65-1.56.16-3.13.37-4.68.62-1.93.31-3.89.47-5.83.78a14.89,14.89,0,0,1-3.54.38c-.8-.07-1.51.39-2.34.33a3,3,0,0,0-2.19.27.25.25,0,0,1-.15,0c-1.5-.19-2.95.39-4.46.33a14.86,14.86,0,0,0-3.79.52,4.48,4.48,0,0,1-1,.06,17.22,17.22,0,0,0-4.84.6,1.72,1.72,0,0,1-.6,0,23,23,0,0,0-4.61.37c-1.13.09-2.28.13-3.4.26a57.66,57.66,0,0,1-7.87.59c-1.12.52-2.35.16-3.56.38.34.36.71.19,1,.21,3.47.21,6.91-.49,10.37-.3,1.57-.49,3.21-.09,4.76-.34s3.32,0,4.92-.31c1.9-.33,3.84.06,5.67-.33s3.49.15,5.15-.53h.15c2,.12,3.88-.55,5.83-.29.93.13,1.74-.38,2.64-.33a8.83,8.83,0,0,0,2.57,0c1.09-.28,2.24,0,3.25-.31,1.55-.47,3.19.13,4.69-.55a.37.37,0,0,1,.15,0c1.91.12,3.78-.31,5.68-.37,1.48-.05,3-.23,4.46-.23.24,0,.51-.09.76.14-.47,2-.13,4-.23,6.06,0,.41.36.68.35,1.13s.34.57.77.56a7.65,7.65,0,0,0,1.66,0c1.32-.37,2.69-.44,4-.77s2.51-.39,3.74-.72a2.92,2.92,0,0,1,1.86.36,26.59,26.59,0,0,1,4.53,2,1.17,1.17,0,0,1,.67,1.17c0,2,0,4.05,0,6.07,0,3.79,0,7.58,0,11.37a2.11,2.11,0,0,1-.72,1.71c-1.46,1.4-2.88,2.83-4.29,4.28a2.87,2.87,0,0,1-2.26.92c-1.72,0-3.44,0-5.15,0-3.53-.16-7,.49-10.53.32-1.62.49-3.31.06-4.91.35s-3.22,0-4.77.3-3.3.09-4.92.28a66.88,66.88,0,0,1-7.87.58c-1.29.64-2.78,0-4.08.6a.61.61,0,0,1-.3,0c-2-.2-3.87.5-5.83.31-1.55.66-3.27-.06-4.83.6a.61.61,0,0,1-.3,0c-2-.2-3.87.39-5.83.36a25.73,25.73,0,0,1-2.94.22c.14-.29.42-.41.66-.58a65.55,65.55,0,0,0,6.22-4.5,4,4,0,0,0,1.71-3.18c-.06-1.33-.78-1.85-2-1.3a9,9,0,0,0-1.89,1.23,36,36,0,0,1-4.5,3.26c-3.1,1.82-6.25,3.53-9.45,5.08a1.62,1.62,0,0,1-.74-1.16c-.21-1.16-.51-2.32-.83-3.47s-.13-2.4-.39-3.59a23.34,23.34,0,0,0-.78-3.77,10.19,10.19,0,0,1-.41-4.3,6.09,6.09,0,0,1,.73-2.11s.42.21.53-.25a5.65,5.65,0,0,0,.26-1,3,3,0,0,1,.11-.9c.47-1.21-.23-2.07-1-2.79a2.4,2.4,0,0,0-2.81-.38c-4,1.93-6.22,5.17-5.67,9.8.27,2.29,1.5,4.4,1,6.86a7.93,7.93,0,0,0,.58,3.06c.47,1.83,1,3.65,1.48,5.47a3.37,3.37,0,0,0-1.84.47,1.3,1.3,0,0,1-1,.2,5.47,5.47,0,0,0-2.66.62h5.72c.29,1.27-.66,1.82-1.46,2.39-.57.4-1.25.65-1.84,1A51,51,0,0,0,292.11,100.8Zm-.23-38.26a1.08,1.08,0,0,1,.46-1.31,3.36,3.36,0,0,0,1.27-2,1.75,1.75,0,0,1,1-1.2,4.1,4.1,0,0,0,1.76-1.81c.26-.53.65-1.07.45-1.68-1-3-3.31-4.74-6.72-3.53-.29.1-.72.3-.6.5.32.53-.17.61-.34.84-.57.77-.6.77,0,1.65a1.07,1.07,0,0,1,.25.67,4.89,4.89,0,0,1-.27,1.93,16.75,16.75,0,0,0-1,2.79A6.65,6.65,0,0,1,286,63c-.45.38-.87.66-.8,1.31s-.11,1.1.2,1.62c.21.34.34.72.52,1.08.35.69.76.93,1.44.64a5,5,0,0,0,2.95-2.6c.12-.29.24-.45.5-.39.85.21,1.16-.46,1.53-.94a3.07,3.07,0,0,0,.87-1.76C292.78,62.28,292.27,62.21,291.88,62.54Z"/><path class="cls-3" d="M179.69,85.12a22.76,22.76,0,0,0,2.72-3.78,62.26,62.26,0,0,1,4.49-5.86q3.25-4.07,6.64-8a30.31,30.31,0,0,1,5.18-5.07c.41-.29.87-.5,1.3-.75,3-1.66,5.57.67,6.23,2.92a6.75,6.75,0,0,1-.48,4.36c-.74,2-1.84,3.89-2.72,5.85a101.78,101.78,0,0,0-4.24,9.91c-.16.46-.64,1,.08,1.47.19.13.06.56,0,.86-.29,1-.51,2-.88,3a25.8,25.8,0,0,0-.78,3.65.86.86,0,0,0,0,.16c0,.56,0,1.18.52,1.47a1.4,1.4,0,0,0,1.41-.31,10.64,10.64,0,0,0,1.53-1.22c3.25-3.1,6.12-6.56,9.16-9.86C211.44,82.16,212,80,212.91,78a34.23,34.23,0,0,1,4.71-7.66,4.86,4.86,0,0,1,1.5-1.24,26.56,26.56,0,0,0,3.25-2.16,5,5,0,0,1,6.58.57A12.59,12.59,0,0,1,232,73.25a1.21,1.21,0,0,0,.47.84,12,12,0,0,1,3.46-3.2A4.22,4.22,0,0,1,242.2,73a3.46,3.46,0,0,1-.1,2.78c-.42.91-.84,1.82-1.31,2.7a50.87,50.87,0,0,0-2.52,6.24,2.39,2.39,0,0,0-.2,1c.24,1.85-.42,3.56-.76,5.31-.29,1.53-.41,3.07-.68,4.6a4.2,4.2,0,0,0,.3,1.92A.76.76,0,0,0,238,98a4.86,4.86,0,0,0,1.35-1,36,36,0,0,0,4.18-5c3.14-4.23,5.89-8.73,8.76-13.15a1.4,1.4,0,0,0,.11-1.67,5.63,5.63,0,0,1-.53-4.51,7.75,7.75,0,0,1,3.19-4.45,4.16,4.16,0,0,1,4.28-.54,3.91,3.91,0,0,0,.84.26,1.35,1.35,0,0,1,.92.93,3,3,0,0,1-1.09,2.67,1,1,0,0,0-.42.39c-.37.65-.78,1.28-1.15,1.94-1.07,1.87.09,2.87,1.75,3.18a14.44,14.44,0,0,0,2.87.09,10.28,10.28,0,0,1,3.83.63c1.86.69,2.73,1.73,1.82,4-.72,1.8-1.53,3.58-2.38,5.33a101.65,101.65,0,0,0-4,10c-.43,1.17-1,2.27-1.36,3.48a5.05,5.05,0,0,0-.22,1.63c0,.54.3.76.77.59a6.18,6.18,0,0,0,1.34-.66,26.38,26.38,0,0,0,4-3.26,17.56,17.56,0,0,0,1.18-1.89c3.11-3.95,6.1-8,9.24-11.92a11.79,11.79,0,0,0,2.06-5.06,37.42,37.42,0,0,1,1.55-5.3,5.47,5.47,0,0,1,2.23-3.11,3.76,3.76,0,0,1,2.75-.53,9.83,9.83,0,0,1,3.72,1.52c.95.67,1,.83.63,1.94a3.16,3.16,0,0,1-1,1.63,4.12,4.12,0,0,0-1.62,2.47c-.48,2.49-2,4.55-2.65,6.94a11.08,11.08,0,0,0-.73,3.65c.08,1.58,1,2.16,2.41,1.53a8.1,8.1,0,0,0,1.94-1.14c1.78-1.47,3.66-2.83,5.34-4.42.36-.34.75-.62.67-1.26-.05-.33.26-.73.47-1.07a50.53,50.53,0,0,1,3.5-4.72,3.33,3.33,0,0,1,.77-.73c.52-.34,1.15-.62,1.69-.22a1.37,1.37,0,0,1,.35,1.64,15.72,15.72,0,0,1-.61,1.53,8.75,8.75,0,0,1-.78,1.28c-2.62,3.63-5.23,7.25-7.87,10.86a12.1,12.1,0,0,1-2.82,2.71,3.62,3.62,0,0,1-3,.6,7.84,7.84,0,0,1-5.2-3.21c-.71-1.09-1.57-2.08-2.42-3.18-3.26,4.54-6.28,9.17-10.21,13.09-1.5,1.26-3.05,2.44-4.61,3.61-1.08.81-2.32,1.33-3.43,2.08-.92.62-1.93.15-2.84-.15a5.6,5.6,0,0,1-3.28-3.49,5.5,5.5,0,0,0-.39-.81,1.23,1.23,0,0,0-.3-.92,10,10,0,0,0-.26-2.12c.45-2.8.79-5.63,2.47-8.06a1.05,1.05,0,0,0,.19-.4,21.9,21.9,0,0,1,2-5.14c.91-2,1.89-4,2.92-6.19a9.37,9.37,0,0,1-6.6-.6c-.9,1.56-1.81,3-2.52,4.55a68.56,68.56,0,0,1-7.05,11.86,23.21,23.21,0,0,0-2.43,3.24,22.26,22.26,0,0,1-3.57,3.22,6.54,6.54,0,0,1-3.47.89c-.48,0-.93-.24-1.41-.28a8.59,8.59,0,0,1-3.27-3.12,20.8,20.8,0,0,1-1.39-4.57,17.38,17.38,0,0,1,0-4.5A43.32,43.32,0,0,1,231,83.83a2,2,0,0,0,0-1.28,52.51,52.51,0,0,0-3.55,5.24A38.36,38.36,0,0,1,222,95.31a39.31,39.31,0,0,1-3.44,3.39,2.86,2.86,0,0,1-2.3.84,12.28,12.28,0,0,0-2.42.06,2,2,0,0,1-1.63-.62,8.2,8.2,0,0,1-2.55-5.3c-.12-1.2,0-2.42-.23-3.72q-1.47,2.34-3,4.68a45.51,45.51,0,0,1-5.41,7c-2.28,2.41-5,2.18-7.42.43a21.29,21.29,0,0,1-2.94-2.84,7.39,7.39,0,0,1-1.11-2.23c-1-2.36-.55-4.72.06-7.07.5-1.93,1-3.85,1.62-5.76a45.12,45.12,0,0,1,3.13-7.12,13,13,0,0,1,1.25-2.22c2-2.42,2.26-5.55,3.81-8.19-.54-.21-.66.15-.84.31a59.74,59.74,0,0,0-6.92,8c-1.05,1.36-2.11,2.7-3.23,4a5,5,0,0,1-1.82,1.56,1.92,1.92,0,0,0-.9,1,65.92,65.92,0,0,1-5.39,8,40,40,0,0,0-3.5,5.78,2.58,2.58,0,0,1-4.43.52,4.28,4.28,0,0,1-1-2.61,45.64,45.64,0,0,1,.83-10.49c.63-3.28,1.22-6.58,1.94-9.84a158.3,158.3,0,0,1,5.12-18.12,66.19,66.19,0,0,1,2.85-6.92,1.79,1.79,0,0,0,.22-.7c.91-1.82,1.82-3.65,2.75-5.46s1.78-3.34,2.65-5a17.42,17.42,0,0,0,.88-2,2.12,2.12,0,0,1,.61-1.16.7.7,0,0,0,.37-.62,4.48,4.48,0,0,1,1.08-2.9c3-4.61,6-9.2,9.36-13.6a22.27,22.27,0,0,1,5.84-5.61,8.45,8.45,0,0,1,5.37-1.5,4.56,4.56,0,0,1,4.1,4.41,12.56,12.56,0,0,0,.24,3.29,5.46,5.46,0,0,1-.32,2.65A70,70,0,0,1,213,28.32a80,80,0,0,1-5.48,11.94c-1.07,1.87-2.12,3.74-3.17,5.61-1.31,1.77-2.46,3.64-3.84,5.37a18.41,18.41,0,0,1-3,3.14,7.68,7.68,0,0,0-1.86,2c-2,3.14-4.73,5.62-7.34,8.21-.82.82-1.64,1.64-2.49,2.44a6.81,6.81,0,0,0-1.73,2.79C182.49,74.5,181,79.26,179.6,84a5.41,5.41,0,0,0-.12.9c-.21.16-.34.47-.14.58S179.55,85.25,179.69,85.12ZM190.5,46.5a6.41,6.41,0,0,0-1,2.42c-1.16,3-2.42,6-3.32,9.09-.26.89-.47,1.8-.71,2.69A3.28,3.28,0,0,0,186.54,59a84.78,84.78,0,0,1,3.71-9.11,14.74,14.74,0,0,0,1.21-3.35c.59-.41.57-1.14.85-1.7,2.29-4.5,4.49-9,6.85-13.5,1.58-3,2.92-6.1,4.44-9.13a4.7,4.7,0,0,0,.8-2.4,2.37,2.37,0,0,0-.82.95c-2.22,4.25-4.47,8.49-6.67,12.74-1.54,3-3,6-4.59,8.93A15.43,15.43,0,0,0,190.5,46.5Zm8.14-.31a14.49,14.49,0,0,1,1.56-2.32c1.29-2.19,2.63-4.36,3.88-6.57a74.69,74.69,0,0,0,7.52-18,10.62,10.62,0,0,0,.44-3.13,2.69,2.69,0,0,0-.43-1.42.76.76,0,0,0-1-.3,3.54,3.54,0,0,0-1.34,1.18,73.67,73.67,0,0,0-5.47,9q-4.2,7.91-8.27,15.87a46.35,46.35,0,0,0-2.84,6,3.85,3.85,0,0,0-.64,1.18,42.19,42.19,0,0,1-2.41,7c-.58,1.58-1.18,3.17-1.79,4.82,1,.05,1.34-.69,1.77-1.18a116.53,116.53,0,0,0,7.89-10C197.94,47.7,198.64,47.12,198.64,46.19Zm18.24,45.49v.69a1.07,1.07,0,0,0,.43,1.06c.43.28.79,0,1.09-.25a9.57,9.57,0,0,0,1.42-1.35c3.28-4.06,6.33-8.29,9.23-12.64a2.83,2.83,0,0,0,.4-2.68,11.14,11.14,0,0,1-.61-2.15c-.11-.79-.56-1.47-.22-2.43.42-1.24-1.17-2.34-2.42-1.85a5,5,0,0,0-2.37,2,41.42,41.42,0,0,0-2.66,4.79c-.08.16-.24.4-.18.49a1,1,0,0,1,.09.72c0,.42-.4-.21-.56.22-.55,1.48-1.34,2.89-1.78,4.4-.35,1.23-.7,2.48-1.08,3.7s-.17,2.51-.52,3.72A5.24,5.24,0,0,0,216.88,91.68Z"/><path class="cls-3" d="M131.55,52.24c-2.59,5.06-5.32,10-7.63,15.45a24,24,0,0,0,2.93.31c1.44,0,2.91.35,4.31-.3a.78.78,0,0,1,.91.38c.3.41-.06.7-.22.93a1.81,1.81,0,0,1-.89.52,10.8,10.8,0,0,1-3.38.62,10.92,10.92,0,0,0-3.38.63,4.56,4.56,0,0,0-2.81,2.55c-.77,1.62-1.5,3.27-2.16,4.94-1.29,3.24-2.82,6.39-3.84,9.73-1.48,4.83-3.52,9.44-5.26,14.17l-2.7,7.3c-.22.6-.4,1.24-.68,1.82-1.33,2.66-3,2.78-5.12,1.37a4.43,4.43,0,0,1-1.89-5.1,113.88,113.88,0,0,1,4.48-13.64c2.42-6.12,4.83-12.25,7.11-18.43a15.61,15.61,0,0,0,.92-2.47c-.39-.28-.7-.09-1,0a26.51,26.51,0,0,1-5.73,1c-2.33.3-4.66.63-7,.93A4,4,0,0,0,95,78.27c-1.57,6.45-3.76,12.7-5.71,19a42.23,42.23,0,0,0-1.42,5.82,5.09,5.09,0,0,1-1.13,2.73,2,2,0,0,1-2.32.56,6.58,6.58,0,0,1-4.23-4.91,5.86,5.86,0,0,1,.36-2.8C82,93.41,83.65,88.19,85.39,83c.61-1.85,1.2-3.7,1.82-5.54a3.81,3.81,0,0,0,.22-1.34,12.68,12.68,0,0,1-2.21-1.27c-.46-.46-1-.91-.84-1.67A2,2,0,0,1,86,71.72a10.74,10.74,0,0,1,2.32-.56c1.09,0,1.46-.78,1.8-1.57.66-1.56,1.28-3.14,1.9-4.71q1.92-4.8,3.82-9.6c1.66-4,3.27-7.92,5-11.85.95-2.14,2.1-4.21,3.15-6.31.35-.71.72-1.41,1-2.15.41-1,1-1.51,2-1.42a7,7,0,0,1,4.54,2.05,2.52,2.52,0,0,1,.35,3.18,3.6,3.6,0,0,1-.38.64c-1.34,1.27-1.78,3-2.32,4.64a47,47,0,0,1-2.26,5.22c-.83,1.8-1.82,3.53-2.49,5.4-.45,1-.92,2-1.35,3a24.26,24.26,0,0,0-1.65,4,39.15,39.15,0,0,1-2.87,8.1,5.73,5.73,0,0,0,1.86-.05c1.26-.27,2.53-.55,3.8-.76a37.18,37.18,0,0,1,7.07-.37c2.11.06,3.58-.61,4.41-2.76s1.69-4.58,2.65-6.82a43.35,43.35,0,0,0,2.15-5.24c1.19-2.59,2.38-5.17,3.55-7.77,1-2.22,1.95-4.47,2.94-6.7a19.62,19.62,0,0,0,1.13-2.77,1.68,1.68,0,0,1,2.35-1.33c2.82.46,4.48,2.29,5.59,4.73a2.75,2.75,0,0,1-.15,2.62,22.38,22.38,0,0,0-2,5,29.58,29.58,0,0,1-1.65,3.34A8.06,8.06,0,0,0,131.55,52.24Zm-30.89,6.17a57.38,57.38,0,0,0-5,11.39c.17,0,.33,0,.35,0,1.4-3.13,2.81-6.25,4.18-9.39A3.15,3.15,0,0,0,100.66,58.41Zm8.41,40.51c-1.06,1.63-2.19,3.08-1.9,5.15a19.12,19.12,0,0,0,2-4.59A2.41,2.41,0,0,0,109.07,98.92Z"/><path class="cls-3" d="M152.68,49.82a83.22,83.22,0,0,0-7,12.6,223.62,223.62,0,0,0-8.36,22.09,49.47,49.47,0,0,0-2.31,10,38.73,38.73,0,0,0-.11,5.9,7.58,7.58,0,0,0,1.71,4.06,2.94,2.94,0,0,0,2.06,1.13,8.86,8.86,0,0,0,3.43-.21,21.29,21.29,0,0,0,8.91-5.08,75.79,75.79,0,0,0,12.1-14.22c.67-1,1.25-2.06,1.85-3.1a3.23,3.23,0,0,1,1.09-1.39c.46-.28.82-.2.95.28a6.06,6.06,0,0,1,.13,1.35,21.36,21.36,0,0,1-1.37,7.34,34,34,0,0,1-5.51,9.91,44.79,44.79,0,0,1-5.29,5.8,39.72,39.72,0,0,1-6.82,5.19,8,8,0,0,1-7.5.43c-4.63-2-8.69-4.85-11.44-9.22a12.74,12.74,0,0,1-2.19-7.23,37,37,0,0,1,.59-6.12,19.89,19.89,0,0,0,.28-3,26.74,26.74,0,0,1,1.64-7.59c1.64-4.87,3.38-9.7,5.15-14.51a59.71,59.71,0,0,1,3.44-7,61.08,61.08,0,0,1,3.47-5.95,3.48,3.48,0,0,0,2-2.53A10.7,10.7,0,0,1,145.28,46c1.45-2,2.82-4.14,4.3-6.15a49.57,49.57,0,0,1,6.07-7.11,21.79,21.79,0,0,1,4.39-3.4,9,9,0,0,1,10.09,1A14.81,14.81,0,0,1,175,39.51a14.69,14.69,0,0,1-.59,7.21,3,3,0,0,0-.1.6c-1.81,4.39-5.34,6.81-9.62,8.38-.71.26-1.49.11-2.19.42-.3.13-.59-.09-.77-.34a.57.57,0,0,1,.07-.81A8.87,8.87,0,0,0,163.63,52a20.2,20.2,0,0,0,1.4-2.79c.38-.74,1.25-1,1.62-1.82a55.27,55.27,0,0,0,3.07-7.63,6.85,6.85,0,0,0,.43-2.66c-.17-1.56-1.28-2.69-2.57-2.45a2.93,2.93,0,0,0-1.38.48,3,3,0,0,1-1.91.76.72.72,0,0,0-.72.45c-.15.56-.63.73-1,1a26.91,26.91,0,0,0-2.66,2.46A66.47,66.47,0,0,0,152.68,49.82Zm-.55-3.16a2.85,2.85,0,0,0-.56.47c-1.08,1.45-2.07,3-3,4.48a87,87,0,0,0-6.25,12c-.93,2.15-1.81,4.33-2.72,6.52.63.18.7-.27.83-.54.74-1.53,1.42-3.08,2.17-4.6,2.05-4.18,4.17-8.32,6.46-12.37,1.09-1.91,2.2-3.81,3.31-5.71.23-.13.39-.4.17-.55S152.3,46.58,152.13,46.66Z"/><path class="cls-3" d="M304.36,88.89c-.49-1.82-1-3.64-1.48-5.47a7.93,7.93,0,0,1-.58-3.06c.47-2.46-.76-4.57-1-6.86-.55-4.63,1.68-7.87,5.67-9.8a2.4,2.4,0,0,1,2.81.38c.73.72,1.43,1.58,1,2.79a3,3,0,0,0-.11.9,5.65,5.65,0,0,1-.26,1c-.11.46-.51.21-.53.25a6.09,6.09,0,0,0-.73,2.11,10.19,10.19,0,0,0,.41,4.3,23.34,23.34,0,0,1,.78,3.77c.26,1.19.05,2.41.39,3.59s.62,2.31.83,3.47a1.62,1.62,0,0,0,.74,1.16c3.2-1.55,6.35-3.26,9.45-5.08a36,36,0,0,0,4.5-3.26,9,9,0,0,1,1.89-1.23c1.21-.55,1.93,0,2,1.3a4,4,0,0,1-1.71,3.18,65.55,65.55,0,0,1-6.22,4.5c-.24.17-.52.29-.66.58l-1.47.93a65.85,65.85,0,0,1-5.89,3.22,1.63,1.63,0,0,0-1.1,2c.06.24.06.5.1.74a26,26,0,0,1,.42,4.9,2.82,2.82,0,0,0-.18,1.74A14.55,14.55,0,0,1,308.56,112a11.21,11.21,0,0,1-7,3,14.43,14.43,0,0,1-6.91-.94,8,8,0,0,1-4.14-3.29,5.32,5.32,0,0,1-.45-.93c-.28-.79-.11-1.73-.88-2.39-.2-.17,0-.75.06-1.15a12,12,0,0,1,2.35-4.78c.18-.23.35-.48.53-.72a51,51,0,0,1,9.17-7.21c.59-.37,1.27-.62,1.84-1,.8-.57,1.75-1.12,1.46-2.39A1.89,1.89,0,0,0,304.36,88.89Zm4.08,20.35c-.14.05-.32.06-.41.16a16.17,16.17,0,0,1-4.33,2.85,6,6,0,0,0,4.86-2.89c.12-.07.3-.18.15-.31S308.49,109.11,308.44,109.24Zm-8.21-9.7a17.66,17.66,0,0,0-5.16,4.29,9,9,0,0,0-1.71,3.31,1.68,1.68,0,0,0,1.53,2.38,6.7,6.7,0,0,0,2.4-.08c1-.19,1.87-.67,2.85-.87a3.32,3.32,0,0,0,2.13-1.56,20.66,20.66,0,0,0,2.33-4.5,6.06,6.06,0,0,0,.5-2.62c0-1.3.62-2.61-.12-3.9a1,1,0,0,0-.67.36,13.09,13.09,0,0,1-2.67,2.13A4.3,4.3,0,0,0,300.23,99.54Z"/><path class="cls-2" d="M313.53,99.22a26,26,0,0,0-.42-4.9c0-.24,0-.5-.1-.74a1.63,1.63,0,0,1,1.1-2A65.85,65.85,0,0,0,320,88.34c.05.09.09.24.14.24a9.91,9.91,0,0,0,3.56-.12,1.84,1.84,0,0,1,.73-.1c4.32.22,8.64-.19,12.95-.37,7.66-.33,15.32.07,23-.32,5.94-.3,11.87-.06,17.81-.21.42,0,.89-.17,1.37.23a6.78,6.78,0,0,1-2.37,1.93c-1.28.8-2.57,1.62-3.9,2.35a34.37,34.37,0,0,1-3.83,1.82,44.86,44.86,0,0,1-5.12,1.65c-1.42.35-2.86.64-4.32.85s-3.21,0-4.76.31a33.35,33.35,0,0,1-5.08.23,22.79,22.79,0,0,1-2.5.35,4.41,4.41,0,0,0-2.5.24c-.32.16-.8,0-1.2,0a26.28,26.28,0,0,0-4.32.25c-1.38.35-2.86-.09-4.31.31a8.12,8.12,0,0,1-2.87,0c-1-.09-1.93.39-2.95.35a5,5,0,0,0-2.81.25,2,2,0,0,1-1,0,34.7,34.7,0,0,0-6.28.39C317.41,99.22,315.48,99.22,313.53,99.22Z"/><path class="cls-2" d="M120.46,53.79A43.35,43.35,0,0,1,118.31,59c-1,2.24-1.78,4.55-2.65,6.82s-2.3,2.82-4.41,2.76a37.18,37.18,0,0,0-7.07.37c-1.27.21-2.54.49-3.8.76a5.73,5.73,0,0,1-1.86.05,39.15,39.15,0,0,0,2.87-8.1,24.26,24.26,0,0,1,1.65-4c.43-1,.9-2,1.35-3,.65,0,1.31,0,2,0,2,0,4-.28,6-.38a20.86,20.86,0,0,0,3.54-.26A23.77,23.77,0,0,1,120.46,53.79Z"/><path class="cls-3" d="M291.88,62.54c.39-.33.9-.26,1.28-.57a3.07,3.07,0,0,1-.87,1.76c-.37.48-.68,1.15-1.53.94-.26-.06-.38.1-.5.39a5,5,0,0,1-2.95,2.6c-.68.29-1.09,0-1.44-.64-.18-.36-.31-.74-.52-1.08-.31-.52-.14-1.08-.2-1.62s.35-.93.8-1.31a6.65,6.65,0,0,0,2.2-3.61,16.75,16.75,0,0,1,1-2.79,4.89,4.89,0,0,0,.27-1.93,1.07,1.07,0,0,0-.25-.67c-.63-.88-.6-.88,0-1.65.17-.23.66-.31.34-.84-.12-.2.31-.4.6-.5,3.41-1.21,5.72.51,6.72,3.53.2.61-.19,1.15-.45,1.68A4.1,4.1,0,0,1,294.63,58a1.75,1.75,0,0,0-1,1.2,3.36,3.36,0,0,1-1.27,2A1.08,1.08,0,0,0,291.88,62.54Z"/><path class="cls-2" d="M253.3,100.79a18.35,18.35,0,0,1-2.57,0,56.92,56.92,0,0,0-7.94-.28.44.44,0,0,1-.49-.44,23.21,23.21,0,0,1,2.43-3.24A68.56,68.56,0,0,0,251.78,85c.71-1.55,1.62-3,2.52-4.55a9.37,9.37,0,0,0,6.6.6c-1,2.19-2,4.17-2.92,6.19a21.9,21.9,0,0,0-2,5.14,1.05,1.05,0,0,1-.19.4C254.09,95.16,253.75,98,253.3,100.79Z"/><path class="cls-2" d="M216.88,91.68a5.24,5.24,0,0,1,.26-1.55c.35-1.21.14-2.48.52-3.72s.73-2.47,1.08-3.7c.44-1.51,1.23-2.92,1.78-4.4.16-.43.54.2.56-.22a1,1,0,0,0-.09-.72c-.06-.09.1-.33.18-.49a41.42,41.42,0,0,1,2.66-4.79,5,5,0,0,1,2.37-2c1.25-.49,2.84.61,2.42,1.85-.34,1,.11,1.64.22,2.43a11.14,11.14,0,0,0,.61,2.15,2.83,2.83,0,0,1-.4,2.68c-2.9,4.35-6,8.58-9.23,12.64a9.57,9.57,0,0,1-1.42,1.35c-.3.23-.66.53-1.09.25a1.07,1.07,0,0,1-.43-1.06Z"/><path class="cls-2" d="M192.65,46.49c2,.16,4-.51,6-.3,0,.93-.7,1.51-1.17,2.18a116.53,116.53,0,0,1-7.89,10c-.43.49-.76,1.23-1.77,1.18.61-1.65,1.21-3.24,1.79-4.82a42.19,42.19,0,0,0,2.41-7A3.85,3.85,0,0,1,192.65,46.49Z"/><path class="cls-2" d="M190.5,46.5l1,0a14.74,14.74,0,0,1-1.21,3.35A84.78,84.78,0,0,0,186.54,59a3.28,3.28,0,0,1-1.09,1.71c.24-.89.45-1.8.71-2.69.9-3.1,2.16-6.08,3.32-9.09A6.41,6.41,0,0,1,190.5,46.5Z"/><path class="cls-2" d="M179.69,85.12c-.14.13,0,.57-.35.39s-.07-.42.14-.58Z"/><path class="cls-2" d="M100.66,58.41a3.15,3.15,0,0,1-.48,2c-1.37,3.14-2.78,6.26-4.18,9.39,0,0-.18,0-.35,0A57.38,57.38,0,0,1,100.66,58.41Z"/><path class="cls-2" d="M109.07,98.92a2.41,2.41,0,0,1,.06.56,19.12,19.12,0,0,1-2,4.59C106.88,102,108,100.55,109.07,98.92Z"/><path class="cls-2" d="M152.34,46.86c-1.11,1.9-2.22,3.8-3.31,5.71-2.29,4-4.41,8.19-6.46,12.37-.75,1.52-1.43,3.07-2.17,4.6-.13.27-.2.72-.83.54.91-2.19,1.79-4.37,2.72-6.52a87,87,0,0,1,6.25-12c1-1.52,2-3,3-4.48a2.85,2.85,0,0,1,.56-.47Z"/><path class="cls-2" d="M152.13,46.66c.17-.08,0-.58.38-.35s.06.42-.17.55Z"/><path class="cls-2" d="M305.1,99.89c-1.64.07-3.23-.48-4.87-.35a4.3,4.3,0,0,1,1.41-1.06,13.09,13.09,0,0,0,2.67-2.13A1,1,0,0,1,305,96C305.72,97.28,305.1,98.59,305.1,99.89Z"/><path class="cls-2" d="M308.56,109.36a6,6,0,0,1-4.86,2.89A16.17,16.17,0,0,0,308,109.4c.09-.1.27-.11.41-.16Z"/><path class="cls-2" d="M308.44,109.24c.05-.13.12-.32.27-.19s0,.24-.15.31Z"/></svg>