<?xml version="1.0" encoding="UTF-8"?>
<svg xmlns="http://www.w3.org/2000/svg" xmlns:xlink="http://www.w3.org/1999/xlink" width="150pt" height="150pt" viewBox="0 0 150 150" version="1.1">
<g id="surface10320700">
<path style=" stroke:none;fill-rule:nonzero;fill:rgb(94.117647%,53.72549%,13.72549%);fill-opacity:1;" d="M 75 13.125 C 40.847656 13.125 13.125 40.847656 13.125 75 C 13.125 109.152344 40.847656 136.875 75 136.875 C 109.152344 136.875 136.875 109.152344 136.875 75 C 136.875 40.847656 109.152344 13.125 75 13.125 Z M 75 16.875 C 107.125 16.875 133.125 42.875 133.125 75 C 133.125 107.125 107.125 133.125 75 133.125 C 42.875 133.125 16.875 107.125 16.875 75 C 16.875 42.875 42.875 16.875 75 16.875 Z M 75 20.625 C 72.925781 20.625 71.25 22.300781 71.25 24.375 C 71.25 26.449219 72.925781 28.125 75 28.125 C 77.074219 28.125 78.75 26.449219 78.75 24.375 C 78.75 22.300781 77.074219 20.625 75 20.625 Z M 61.910156 24.226562 C 61.867188 24.222656 61.824219 24.226562 61.789062 24.226562 C 61.65625 24.234375 61.539062 24.257812 61.414062 24.289062 C 60.410156 24.558594 59.816406 25.582031 60.085938 26.585938 C 60.359375 27.589844 61.382812 28.183594 62.378906 27.914062 C 63.382812 27.640625 63.976562 26.617188 63.714844 25.613281 C 63.492188 24.800781 62.761719 24.234375 61.910156 24.230469 Z M 88.089844 24.226562 C 87.246094 24.234375 86.515625 24.808594 86.292969 25.621094 C 86.023438 26.625 86.617188 27.648438 87.621094 27.917969 C 88.625 28.183594 89.648438 27.589844 89.914062 26.59375 C 90.042969 26.109375 89.976562 25.597656 89.730469 25.164062 C 89.480469 24.734375 89.070312 24.417969 88.59375 24.285156 C 88.425781 24.25 88.257812 24.226562 88.089844 24.226562 Z M 49.644531 29.28125 C 49.328125 29.289062 49.019531 29.378906 48.75 29.53125 C 48.316406 29.78125 48.003906 30.191406 47.871094 30.675781 C 47.746094 31.148438 47.8125 31.664062 48.0625 32.09375 C 48.3125 32.527344 48.722656 32.84375 49.203125 32.964844 C 49.679688 33.097656 50.191406 33.03125 50.625 32.785156 C 51.519531 32.261719 51.828125 31.113281 51.304688 30.21875 C 50.96875 29.625 50.332031 29.269531 49.644531 29.28125 Z M 100.226562 29.289062 C 99.585938 29.320312 99.007812 29.671875 98.6875 30.226562 C 98.167969 31.121094 98.480469 32.261719 99.375 32.78125 C 100.269531 33.304688 101.417969 32.996094 101.929688 32.101562 C 102.1875 31.667969 102.253906 31.15625 102.121094 30.671875 C 101.996094 30.191406 101.683594 29.78125 101.25 29.53125 C 100.941406 29.355469 100.582031 29.265625 100.226562 29.289062 Z M 75 31.875 C 73.96875 31.875 73.125 32.71875 73.125 33.75 C 73.125 34.78125 73.96875 35.625 75 35.625 C 76.03125 35.625 76.875 34.78125 76.875 33.75 C 76.875 32.71875 76.03125 31.875 75 31.875 Z M 39.226562 37.324219 C 38.722656 37.324219 38.230469 37.523438 37.882812 37.882812 C 37.148438 38.605469 37.148438 39.800781 37.882812 40.523438 C 38.605469 41.257812 39.800781 41.257812 40.523438 40.523438 C 41.257812 39.800781 41.257812 38.605469 40.523438 37.882812 C 40.179688 37.53125 39.71875 37.332031 39.230469 37.324219 Z M 110.824219 37.324219 C 110.316406 37.324219 109.828125 37.523438 109.476562 37.882812 C 108.742188 38.605469 108.742188 39.800781 109.476562 40.523438 C 110.199219 41.257812 111.394531 41.257812 112.121094 40.523438 C 112.851562 39.800781 112.851562 38.605469 112.121094 37.882812 C 111.773438 37.53125 111.3125 37.332031 110.824219 37.324219 Z M 75 39.375 C 73.96875 39.375 73.125 40.21875 73.125 41.25 C 73.125 42.28125 73.96875 43.125 75 43.125 C 76.03125 43.125 76.875 42.28125 76.875 41.25 C 76.875 40.21875 76.03125 39.375 75 39.375 Z M 88.484375 39.960938 L 76.222656 67.625 C 75.820312 67.558594 75.417969 67.5 75 67.5 C 70.875 67.5 67.5 70.875 67.5 75 C 67.5 79.125 70.875 82.5 75 82.5 C 76.382812 82.5 77.664062 82.097656 78.777344 81.4375 L 94.570312 97.214844 L 97.214844 94.570312 L 81.4375 78.78125 C 82.097656 77.667969 82.5 76.382812 82.5 75 C 82.5 72.632812 81.363281 70.539062 79.636719 69.164062 L 91.910156 41.476562 Z M 118.800781 47.8125 C 118.484375 47.820312 118.175781 47.90625 117.898438 48.0625 C 117.003906 48.582031 116.695312 49.722656 117.21875 50.625 C 117.738281 51.519531 118.878906 51.824219 119.773438 51.304688 C 120.207031 51.0625 120.519531 50.652344 120.652344 50.171875 C 120.785156 49.6875 120.71875 49.175781 120.46875 48.75 C 120.125 48.15625 119.480469 47.796875 118.800781 47.8125 Z M 31.070312 47.8125 C 30.433594 47.839844 29.851562 48.195312 29.53125 48.75 C 29.011719 49.644531 29.324219 50.792969 30.21875 51.304688 C 31.113281 51.824219 32.261719 51.519531 32.78125 50.625 C 33.296875 49.730469 32.988281 48.582031 32.09375 48.070312 C 31.785156 47.886719 31.429688 47.796875 31.070312 47.8125 Z M 26.082031 60.027344 C 25.238281 60.027344 24.507812 60.601562 24.289062 61.414062 C 24.015625 62.417969 24.609375 63.441406 25.613281 63.714844 C 26.617188 63.976562 27.640625 63.382812 27.914062 62.378906 C 28.175781 61.382812 27.582031 60.359375 26.578125 60.085938 C 26.417969 60.042969 26.25 60.023438 26.082031 60.027344 Z M 123.96875 60.027344 C 123.777344 60.023438 123.597656 60.035156 123.414062 60.085938 C 122.410156 60.359375 121.816406 61.382812 122.085938 62.378906 C 122.359375 63.382812 123.382812 63.976562 124.386719 63.714844 C 125.382812 63.441406 125.976562 62.417969 125.710938 61.414062 C 125.492188 60.621094 124.789062 60.058594 123.96875 60.03125 Z M 24.375 71.25 C 22.300781 71.25 20.625 72.925781 20.625 75 C 20.625 77.074219 22.300781 78.75 24.375 78.75 C 26.449219 78.75 28.125 77.074219 28.125 75 C 28.125 72.925781 26.449219 71.25 24.375 71.25 Z M 75 71.25 C 77.09375 71.25 78.75 72.90625 78.75 75 C 78.75 77.09375 77.09375 78.75 75 78.75 C 72.90625 78.75 71.25 77.09375 71.25 75 C 71.25 72.90625 72.90625 71.25 75 71.25 Z M 125.625 71.25 C 123.550781 71.25 121.875 72.925781 121.875 75 C 121.875 77.074219 123.550781 78.75 125.625 78.75 C 127.699219 78.75 129.375 77.074219 129.375 75 C 129.375 72.925781 127.699219 71.25 125.625 71.25 Z M 33.75 73.125 C 32.71875 73.125 31.875 73.96875 31.875 75 C 31.875 76.03125 32.71875 76.875 33.75 76.875 C 34.78125 76.875 35.625 76.03125 35.625 75 C 35.625 73.96875 34.78125 73.125 33.75 73.125 Z M 41.25 73.125 C 40.21875 73.125 39.375 73.96875 39.375 75 C 39.375 76.03125 40.21875 76.875 41.25 76.875 C 42.28125 76.875 43.125 76.03125 43.125 75 C 43.125 73.96875 42.28125 73.125 41.25 73.125 Z M 108.75 73.125 C 107.71875 73.125 106.875 73.96875 106.875 75 C 106.875 76.03125 107.71875 76.875 108.75 76.875 C 109.78125 76.875 110.625 76.03125 110.625 75 C 110.625 73.96875 109.78125 73.125 108.75 73.125 Z M 116.25 73.125 C 115.21875 73.125 114.375 73.96875 114.375 75 C 114.375 76.03125 115.21875 76.875 116.25 76.875 C 117.28125 76.875 118.125 76.03125 118.125 75 C 118.125 73.96875 117.28125 73.125 116.25 73.125 Z M 26.167969 86.226562 C 25.980469 86.21875 25.796875 86.242188 25.613281 86.285156 C 25.128906 86.417969 24.71875 86.734375 24.46875 87.164062 C 24.222656 87.597656 24.15625 88.109375 24.289062 88.59375 C 24.558594 89.589844 25.582031 90.183594 26.578125 89.914062 C 27.582031 89.648438 28.175781 88.625 27.914062 87.621094 C 27.699219 86.820312 26.988281 86.257812 26.167969 86.226562 Z M 123.882812 86.226562 C 123.039062 86.242188 122.308594 86.804688 122.085938 87.625 C 121.816406 88.621094 122.410156 89.648438 123.414062 89.917969 C 124.417969 90.191406 125.441406 89.597656 125.710938 88.59375 C 125.976562 87.589844 125.382812 86.566406 124.386719 86.300781 C 124.21875 86.25 124.050781 86.226562 123.882812 86.226562 Z M 31.113281 98.4375 C 30.796875 98.445312 30.492188 98.53125 30.21875 98.6875 C 29.324219 99.207031 29.011719 100.347656 29.53125 101.25 C 29.78125 101.675781 30.191406 101.988281 30.675781 102.121094 C 31.148438 102.253906 31.664062 102.1875 32.09375 101.929688 C 32.527344 101.6875 32.84375 101.277344 32.964844 100.796875 C 33.097656 100.3125 33.03125 99.800781 32.785156 99.375 C 32.4375 98.78125 31.792969 98.421875 31.113281 98.4375 Z M 118.746094 98.4375 C 118.109375 98.472656 117.53125 98.824219 117.21875 99.375 C 116.695312 100.277344 117.003906 101.417969 117.898438 101.9375 C 118.332031 102.1875 118.84375 102.253906 119.328125 102.128906 C 119.808594 101.996094 120.21875 101.683594 120.46875 101.25 C 120.71875 100.824219 120.785156 100.3125 120.652344 99.828125 C 120.519531 99.34375 120.207031 98.933594 119.773438 98.695312 C 119.464844 98.511719 119.105469 98.421875 118.746094 98.4375 Z M 75 106.875 C 73.96875 106.875 73.125 107.71875 73.125 108.75 C 73.125 109.78125 73.96875 110.625 75 110.625 C 76.03125 110.625 76.875 109.78125 76.875 108.75 C 76.875 107.71875 76.03125 106.875 75 106.875 Z M 39.226562 108.925781 C 38.722656 108.917969 38.230469 109.117188 37.882812 109.476562 C 37.148438 110.199219 37.148438 111.394531 37.882812 112.117188 C 38.605469 112.851562 39.800781 112.851562 40.523438 112.117188 C 41.257812 111.394531 41.257812 110.199219 40.523438 109.476562 C 40.179688 109.125 39.71875 108.925781 39.230469 108.925781 Z M 110.824219 108.925781 C 110.316406 108.917969 109.828125 109.117188 109.476562 109.476562 C 108.742188 110.199219 108.742188 111.394531 109.476562 112.117188 C 110.199219 112.851562 111.394531 112.851562 112.121094 112.117188 C 112.851562 111.394531 112.851562 110.199219 112.121094 109.476562 C 111.773438 109.125 111.3125 108.925781 110.824219 108.925781 Z M 75 114.375 C 73.96875 114.375 73.125 115.21875 73.125 116.25 C 73.125 117.28125 73.96875 118.125 75 118.125 C 76.03125 118.125 76.875 117.28125 76.875 116.25 C 76.875 115.21875 76.03125 114.375 75 114.375 Z M 100.261719 116.960938 C 99.953125 116.976562 99.644531 117.054688 99.375 117.21875 C 98.472656 117.738281 98.167969 118.878906 98.6875 119.773438 C 99.207031 120.675781 100.347656 120.980469 101.25 120.46875 C 101.675781 120.21875 101.988281 119.808594 102.121094 119.324219 C 102.253906 118.84375 102.1875 118.328125 101.929688 117.898438 C 101.59375 117.304688 100.949219 116.945312 100.261719 116.960938 Z M 49.601562 116.976562 C 48.960938 117.003906 48.382812 117.355469 48.0625 117.90625 C 47.8125 118.335938 47.746094 118.851562 47.871094 119.328125 C 48.003906 119.808594 48.316406 120.21875 48.75 120.46875 C 49.644531 120.988281 50.792969 120.675781 51.304688 119.78125 C 51.824219 118.886719 51.519531 117.738281 50.625 117.21875 C 50.308594 117.042969 49.957031 116.953125 49.601562 116.976562 Z M 75 121.875 C 72.925781 121.875 71.25 123.550781 71.25 125.625 C 71.25 127.699219 72.925781 129.375 75 129.375 C 77.074219 129.375 78.75 127.699219 78.75 125.625 C 78.75 123.550781 77.074219 121.875 75 121.875 Z M 61.875 122.027344 C 61.039062 122.035156 60.300781 122.601562 60.085938 123.421875 C 59.816406 124.417969 60.410156 125.441406 61.40625 125.710938 C 62.410156 125.984375 63.433594 125.390625 63.707031 124.386719 C 63.976562 123.382812 63.382812 122.359375 62.378906 122.085938 C 62.21875 122.050781 62.050781 122.027344 61.875 122.027344 Z M 88.175781 122.027344 C 87.984375 122.023438 87.796875 122.042969 87.621094 122.085938 C 86.617188 122.359375 86.023438 123.382812 86.285156 124.386719 C 86.558594 125.390625 87.582031 125.984375 88.585938 125.714844 C 89.589844 125.441406 90.183594 124.417969 89.914062 123.421875 C 89.699219 122.621094 88.996094 122.058594 88.175781 122.027344 Z M 88.175781 122.027344 "/>
</g>
</svg>
